<svg width="52" height="27" viewBox="0 0 52 27" fill="none" xmlns="http://www.w3.org/2000/svg">
<path d="M30.0207 9.75154C28.4115 9.75154 26.802 9.75467 25.1928 9.74802C24.9813 9.74724 23.415 11.0588 23.492 11.2289C23.7111 11.7134 24.1555 11.3853 24.471 11.4033C26.4532 11.5163 28.4401 11.5409 30.4231 11.6395C31.7707 11.7067 32.9362 13.3229 32.5644 14.5922C32.4763 14.8925 32.6576 15.0005 32.7961 15.0939C33.9045 15.8408 34.5783 16.7418 34.3585 18.1847C34.2954 18.5984 34.9569 18.4064 35.2434 18.4131C36.7946 18.449 38.2641 18.2144 39.632 17.3381C40.2058 16.9705 40.6935 16.5349 41.2201 16.131C41.8871 15.6191 42.6514 15.9507 43.3515 15.9436C45.688 15.9202 48.0253 16.0461 50.3627 16.0543C51.5647 16.0586 51.979 16.468 51.4913 17.5058C51.2377 18.0451 50.5575 17.7671 50.0829 17.7628C48.0515 17.7452 46.0146 17.7436 43.9912 17.5907C42.5872 17.4843 41.5709 17.9462 40.4427 18.7623C39.055 19.7661 37.3351 20.2083 35.5244 20.0324C34.7049 19.9526 33.8719 20.0065 33.045 20.0065C32.6842 20.0065 32.8739 20.3362 32.86 20.4433C32.5588 22.7845 32.1676 23.1763 29.8437 23.249C29.0754 23.2733 29.4104 23.8712 29.4056 24.1293C29.3727 26.0004 27.9473 26.5451 26.4722 26.5686C25.2611 26.5877 24.0488 26.5357 22.8377 26.5072C20.5967 26.4544 18.3467 26.4962 16.1181 26.3023C14.7744 26.1854 13.4185 25.8772 12.2383 25.0615C11.8871 24.8187 11.4299 24.6595 11.1922 24.3088C10.5426 23.3511 9.55094 23.4837 8.61839 23.4539C7.15328 23.407 5.6862 23.4187 4.2207 23.382C3.04409 23.3523 1.86908 23.276 0.692868 23.2432C0.0638898 23.2252 0 22.7782 0 22.3524C0 21.844 0.362704 21.6129 0.851204 21.6223C3.31632 21.6708 5.78104 21.7299 8.24576 21.7877C9.08744 21.8077 9.93071 21.8124 10.7692 21.8765C10.9518 21.8906 11.1319 22.1139 11.2871 22.2671C12.5256 23.4911 13.9355 24.326 15.7387 24.523C18.7078 24.8472 21.6864 24.7287 24.6599 24.8347C25.4567 24.8632 26.2504 24.9614 27.0524 24.8261C27.4453 24.76 27.7084 24.5402 27.7492 24.2247C27.8072 23.7769 27.6588 23.3147 27.0881 23.2764C25.394 23.1634 23.698 23.0672 22.0011 23.0027C21.5638 22.9863 21.4194 22.7231 21.3785 22.4232C21.3174 21.975 21.4618 21.5691 22.0095 21.5042C23.7353 21.2989 25.4591 21.5289 27.1845 21.5402C28.3131 21.5476 29.4421 21.6012 30.5703 21.5856C30.885 21.5813 31.1457 21.3146 31.185 20.9912C31.2548 20.4183 30.931 19.9643 30.3933 19.9381C27.9215 19.8169 25.4452 19.7821 22.9718 19.6839C22.4769 19.6644 21.8166 20.0922 21.5599 19.2022C21.2698 18.1972 21.9444 18.0752 22.6079 18.0729C24.4047 18.0666 26.2024 18.135 27.9992 18.178C29.2501 18.2078 30.5017 18.2226 31.7509 18.2871C32.3334 18.3173 32.6326 17.9552 32.6961 17.5418C32.7914 16.9252 32.3703 16.628 31.7429 16.6123C29.4116 16.5552 27.0802 16.4852 24.7484 16.4317C23.9841 16.4141 23.2138 16.4837 22.4559 16.4133C22.0551 16.3761 21.7015 16.0457 21.6714 15.6156C21.6233 14.925 22.1114 14.7287 22.7059 14.7412C24.896 14.7881 27.0857 14.8433 29.2754 14.9074C29.6016 14.9168 29.9155 14.9152 30.2449 14.8785C30.8469 14.8116 31.0148 14.4108 30.9088 14.0107C30.7822 13.5341 30.3683 13.2416 29.7913 13.2259C27.3722 13.1606 24.9536 13.0636 22.5345 12.9964C21.723 12.9737 20.9079 12.9753 20.0975 13.0214C19.4106 13.0605 18.8233 12.786 18.7459 12.1799C18.6725 11.6047 19.3416 11.3188 19.8213 11.0697C20.5805 10.6756 21.3507 10.2873 22.1523 9.99047C22.7146 9.78244 23.0146 9.55837 22.9428 8.89791C22.8686 8.21437 22.3353 8.10527 21.9484 8.22141C21.065 8.48653 20.244 8.946 19.3824 9.28933C18.2963 9.72182 17.1515 10.0327 16.1106 10.5497C14.8522 11.1745 13.2562 11.1984 12.3208 12.3578C11.3113 13.6088 10.047 13.6686 8.6041 13.5869C6.18144 13.4496 3.75164 13.425 1.32423 13.3866C0.692074 13.3769 0.239686 13.2302 0.243258 12.533C0.247623 11.6747 0.935729 11.7251 1.49844 11.738C4.31911 11.8025 7.139 11.9011 9.95968 11.9711C10.1037 11.9746 10.2803 11.8569 10.3938 11.7478C11.7212 10.4691 13.301 9.70149 15.1022 9.2561C16.0022 9.0336 16.8209 8.50061 17.688 8.13499C18.2689 7.8902 18.8598 7.65479 19.4662 7.48469C20.0424 7.32319 20.1729 6.88327 20.3321 6.42067C20.74 5.23387 21.9432 4.58592 23.1877 4.68368C24.7893 4.80959 26.4012 4.80646 28.0092 4.85143C28.3195 4.86004 28.631 4.8354 28.9417 4.82562C29.0663 4.82171 29.2346 5.03288 29.2981 4.80959C29.3258 4.71183 29.1846 4.54603 29.0889 4.4381C27.9901 3.19538 28.1179 2.06137 28.9326 0.858143C29.4465 0.099136 31.3263 -0.0525872 32.1215 0.400236C32.9279 0.858925 33.8382 1.13695 34.6894 1.52408C35.5279 1.90535 36.3704 2.28622 37.1712 2.73591C37.9387 3.16684 38.8069 3.34202 39.5756 3.73228C40.2042 4.05137 40.9336 4.3161 41.3427 4.91478C42.1895 6.1532 43.4364 6.08438 44.7126 6.09416C46.5932 6.10862 48.473 6.1927 50.3536 6.24353C50.6083 6.25057 50.8639 6.23767 51.1186 6.23258C51.7671 6.22007 52.0881 6.64513 51.981 7.16247C51.8738 7.67982 51.3849 7.93947 50.7893 7.92031C48.6075 7.8507 46.4253 7.7678 44.2427 7.75177C42.834 7.7416 41.5919 7.64814 40.5895 6.37336C39.9431 5.55139 38.8482 5.10835 37.7208 4.87255C37.1097 4.74468 36.574 4.28951 35.9871 4.01852C34.8612 3.49883 33.7227 3.00612 32.5906 2.50051C31.9945 2.23421 31.4771 1.81032 30.7556 1.80641C30.304 1.80407 30.0846 2.01953 30.0028 2.35465C29.8608 2.93534 30.2644 3.26851 30.7171 3.51525C31.4572 3.91841 32.1818 4.37593 32.968 4.66373C34.3997 5.18773 34.0771 6.60915 34.6553 7.5539C35.2105 8.46111 35.8763 9.35151 36.9708 9.80551C37.5414 10.0425 38.1192 10.1551 38.7069 10.2955C39.1169 10.3936 39.3117 10.8617 39.1617 11.2187C38.9526 11.7169 38.4839 11.9758 37.8974 11.8581C36.1859 11.514 34.7878 10.6662 33.7533 9.27408C33.2715 8.62613 32.9505 7.90506 32.7596 7.11086C32.5767 6.35107 31.8664 6.58804 31.356 6.56458C29.5874 6.48363 27.8167 6.44726 26.0464 6.40308C24.927 6.37531 23.8071 6.36241 22.6873 6.34911C22.6412 6.34872 22.594 6.41598 22.5472 6.45196C22.6087 6.50553 22.6623 6.57552 22.7333 6.61033C23.1182 6.7992 23.7023 6.87897 23.8627 7.18007C24.754 8.85528 26.302 7.89958 27.533 8.13381C28.5746 8.33207 29.6707 8.07907 30.7167 8.37548C31.1132 8.4877 31.0933 8.90494 31.0425 9.10594C30.9259 9.56854 30.5652 9.86964 30.0223 9.75154H30.0207Z" fill="#DC2626"/>
</svg>
