<svg width="205" height="38" viewBox="0 0 205 38" fill="none" xmlns="http://www.w3.org/2000/svg">
<g clip-path="url(#clip0_3623_35835)">
<path d="M30.0207 11.7519C28.4115 11.7519 26.802 11.755 25.1928 11.7484C24.9813 11.7476 23.415 13.0592 23.492 13.2293C23.7111 13.7138 24.1555 13.3857 24.471 13.4037C26.4532 13.5167 28.4401 13.5413 30.4231 13.6398C31.7707 13.7071 32.9362 15.3233 32.5644 16.5926C32.4763 16.8929 32.6576 17.0008 32.7961 17.0943C33.9045 17.8412 34.5783 18.7421 34.3585 20.1851C34.2954 20.5988 34.9569 20.4068 35.2434 20.4134C36.7946 20.4494 38.2641 20.2148 39.632 19.3385C40.2058 18.9709 40.6935 18.5353 41.2201 18.1313C41.8871 17.6195 42.6514 17.9511 43.3515 17.944C45.688 17.9206 48.0253 18.0465 50.3627 18.0547C51.5647 18.059 51.979 18.4684 51.4913 19.5062C51.2377 20.0455 50.5575 19.7674 50.0829 19.7631C48.0515 19.7455 46.0146 19.744 43.9912 19.5911C42.5872 19.4847 41.5709 19.9465 40.4427 20.7626C39.055 21.7664 37.3351 22.2087 35.5244 22.0327C34.7049 21.9529 33.8719 22.0069 33.0449 22.0069C32.6842 22.0069 32.8739 22.3366 32.86 22.4437C32.5588 24.7848 32.1676 25.1767 29.8437 25.2494C29.0754 25.2736 29.4104 25.8715 29.4056 26.1296C29.3727 28.0008 27.9473 28.5455 26.4722 28.5689C25.2611 28.5881 24.0488 28.5361 22.8377 28.5075C20.5967 28.4548 18.3467 28.4966 16.1181 28.3026C14.7744 28.1857 13.4185 27.8776 12.2383 27.0619C11.8871 26.819 11.4299 26.6599 11.1922 26.3091C10.5426 25.3515 9.55094 25.484 8.61839 25.4543C7.15328 25.4074 5.6862 25.4191 4.2207 25.3824C3.04409 25.3526 1.86908 25.2764 0.692868 25.2435C0.0638898 25.2255 0 24.7786 0 24.3528C0 23.8444 0.362704 23.6133 0.851204 23.6227C3.31632 23.6712 5.78104 23.7302 8.24576 23.7881C9.08744 23.808 9.93071 23.8127 10.7692 23.8769C10.9518 23.8909 11.1319 24.1142 11.2871 24.2675C12.5256 25.4915 13.9355 26.3263 15.7387 26.5234C18.7078 26.8476 21.6864 26.7291 24.6599 26.8351C25.4567 26.8636 26.2504 26.9618 27.0524 26.8265C27.4453 26.7604 27.7084 26.5406 27.7492 26.225C27.8072 25.7773 27.6588 25.3151 27.0881 25.2768C25.394 25.1638 23.698 25.0676 22.0011 25.003C21.5638 24.9866 21.4194 24.7235 21.3785 24.4235C21.3174 23.9754 21.4618 23.5695 22.0095 23.5046C23.7353 23.2993 25.4591 23.5292 27.1845 23.5406C28.3131 23.548 29.4421 23.6016 30.5703 23.5859C30.885 23.5816 31.1457 23.3149 31.185 22.9915C31.2548 22.4187 30.931 21.9647 30.3933 21.9385C27.9215 21.8173 25.4452 21.7825 22.9718 21.6843C22.4769 21.6648 21.8166 22.0925 21.5599 21.2025C21.2698 20.1976 21.9444 20.0756 22.6079 20.0732C24.4047 20.067 26.2024 20.1354 27.9992 20.1784C29.2501 20.2081 30.5017 20.223 31.7509 20.2875C32.3334 20.3176 32.6326 19.9555 32.6961 19.5422C32.7914 18.9255 32.3703 18.6283 31.7429 18.6127C29.4116 18.5556 27.0802 18.4856 24.7484 18.432C23.9841 18.4144 23.2138 18.484 22.4559 18.4137C22.0551 18.3765 21.7015 18.0461 21.6714 17.6159C21.6233 16.9254 22.1115 16.7291 22.7059 16.7416C24.896 16.7885 27.0857 16.8436 29.2754 16.9078C29.6016 16.9171 29.9155 16.9156 30.2449 16.8788C30.8469 16.812 31.0148 16.4111 30.9088 16.0111C30.7822 15.5344 30.3683 15.2419 29.7913 15.2263C27.3722 15.161 24.9536 15.064 22.5345 14.9968C21.723 14.9741 20.9079 14.9756 20.0975 15.0218C19.4106 15.0609 18.8233 14.7864 18.7459 14.1803C18.6725 13.605 19.3416 13.3192 19.8213 13.0701C20.5805 12.6759 21.3507 12.2876 22.1523 11.9908C22.7146 11.7828 23.0146 11.5587 22.9428 10.8983C22.8686 10.2147 22.3353 10.1056 21.9484 10.2218C21.065 10.4869 20.244 10.9464 19.3824 11.2897C18.2963 11.7222 17.1515 12.0331 16.1106 12.55C14.8522 13.1749 13.2562 13.1988 12.3208 14.3582C11.3113 15.6091 10.047 15.6689 8.6041 15.5872C6.18144 15.45 3.75164 15.4253 1.32423 15.387C0.692074 15.3772 0.239686 15.2306 0.243258 14.5334C0.247623 13.675 0.935729 13.7255 1.49844 13.7384C4.31911 13.8029 7.139 13.9015 9.95968 13.9714C10.1037 13.975 10.2803 13.8573 10.3938 13.7482C11.7212 12.4695 13.301 11.7019 15.1022 11.2565C16.0022 11.034 16.8209 10.501 17.688 10.1354C18.2689 9.89056 18.8598 9.65516 19.4662 9.48506C20.0424 9.32356 20.1729 8.88364 20.3321 8.42104C20.74 7.23424 21.9432 6.58628 23.1877 6.68404C24.7893 6.80996 26.4012 6.80683 28.0092 6.8518C28.3195 6.8604 28.631 6.83577 28.9417 6.82599C29.0663 6.82208 29.2346 7.03324 29.2981 6.80996C29.3258 6.7122 29.1846 6.5464 29.0889 6.43847C27.9901 5.19575 28.1179 4.06174 28.9326 2.85851C29.4465 2.0995 31.3263 1.94778 32.1215 2.4006C32.9279 2.85929 33.8382 3.13732 34.6894 3.52445C35.5279 3.90571 36.3704 4.28658 37.1712 4.73628C37.9387 5.1672 38.8069 5.34239 39.5756 5.73265C40.2042 6.05173 40.9336 6.31647 41.3427 6.91515C42.1895 8.15357 43.4364 8.08475 44.7126 8.09452C46.5932 8.10899 48.473 8.19306 50.3535 8.2439C50.6083 8.25094 50.8639 8.23803 51.1186 8.23295C51.7671 8.22044 52.0881 8.6455 51.981 9.16284C51.8738 9.68018 51.3849 9.93983 50.7893 9.92067C48.6075 9.85107 46.4253 9.76817 44.2427 9.75214C42.834 9.74197 41.5919 9.64851 40.5895 8.37372C39.9431 7.55176 38.8482 7.10871 37.7208 6.87292C37.1097 6.74505 36.574 6.28988 35.9871 6.01889C34.8612 5.4992 33.7227 5.00649 32.5906 4.50087C31.9945 4.23458 31.4771 3.81069 30.7556 3.80678C30.304 3.80443 30.0846 4.0199 30.0028 4.35502C29.8608 4.93571 30.2644 5.26887 30.7171 5.51562C31.4572 5.91878 32.1818 6.3763 32.968 6.6641C34.3997 7.18809 34.0771 8.60952 34.6553 9.55427C35.2105 10.4615 35.8763 11.3519 36.9708 11.8059C37.5415 12.0428 38.1192 12.1555 38.7069 12.2958C39.1169 12.394 39.3117 12.8621 39.1617 13.2191C38.9526 13.7173 38.4839 13.9761 37.8974 13.8584C36.1859 13.5143 34.7878 12.6665 33.7533 11.2745C33.2715 10.6265 32.9505 9.90542 32.7596 9.11122C32.5767 8.35143 31.8664 8.5884 31.356 8.56494C29.5874 8.484 27.8167 8.44763 26.0464 8.40344C24.927 8.37568 23.8071 8.36277 22.6873 8.34948C22.6412 8.34909 22.594 8.41635 22.5472 8.45232C22.6087 8.50589 22.6623 8.57589 22.7333 8.61069C23.1182 8.79956 23.7023 8.87934 23.8627 9.18044C24.754 10.8556 26.302 9.89995 27.533 10.1342C28.5746 10.3324 29.6707 10.0794 30.7167 10.3758C31.1132 10.4881 31.0933 10.9053 31.0425 11.1063C30.9259 11.5689 30.5652 11.87 30.0223 11.7519H30.0207Z" fill="#DC2626"/>
<path d="M17.8661 1.86529C18.1598 2.78345 18.4471 3.70396 18.7507 4.61899C18.8463 4.9068 18.9336 5.19304 18.7638 5.46715C18.5197 5.86132 18.1264 6.05293 17.6879 5.92662C17.4241 5.85076 17.3086 5.58603 17.2236 5.25482C16.9792 4.29912 16.532 3.39347 16.2959 2.4366C16.1451 1.82502 15.7149 1.23103 15.9205 0.583076C16.0109 0.298009 16.2899 0.00629372 16.709 3.70964e-05C17.5506 -0.0124762 17.4883 0.715638 17.7229 1.19114C17.8225 1.39331 17.8467 1.63145 17.905 1.85356C17.8919 1.85747 17.8788 1.86138 17.8661 1.8649V1.86529Z" fill="#DC2626"/>
<path d="M24.6706 32.3855C24.7829 34.04 24.854 35.5924 25.0083 37.1366C25.0758 37.8096 24.575 37.9895 24.1988 37.9996C23.6944 38.0133 23.3571 37.5292 23.3075 37.0506C23.1686 35.7164 23.1028 34.3747 23.0083 33.0358C22.9789 32.6182 23.0805 32.2838 23.446 31.998C23.8198 31.7055 24.0801 32.0648 24.3948 32.075C24.5202 32.0789 24.7187 32.2615 24.671 32.3851L24.6706 32.3855Z" fill="#DC2626"/>
<path d="M30.2958 31.1201C30.3219 30.7419 30.2354 30.3669 30.5775 30.2406C30.9616 30.0991 31.4204 30.0631 31.7529 30.3822C32.5363 31.1338 33.2906 31.9151 34.0597 32.6815C34.4303 33.051 34.0149 33.3603 33.9875 33.699C33.67 33.6716 33.4307 34.0591 33.0494 33.8077C32.0851 33.1723 31.2993 32.3507 30.4981 31.542C30.3573 31.4001 30.2096 31.2636 30.2961 31.1197L30.2958 31.1201Z" fill="#DC2626"/>
<path d="M16.5304 32.1559C16.7594 32.5407 16.2963 32.7553 16.1201 33.0052C15.5106 33.8671 14.9891 34.8196 14.1284 35.4699C13.8816 35.6565 13.5216 35.4871 13.2323 35.2255C12.7685 34.8052 13.0212 34.3445 13.2264 34.0622C13.8462 33.2093 14.5808 32.4378 15.2625 31.628C15.5149 31.3284 15.8427 31.3855 16.1193 31.4927C16.3415 31.5787 16.5614 31.7734 16.53 32.1559H16.5304Z" fill="#DC2626"/>
<path d="M8.6914 5.83193C9.45848 6.27224 10.295 6.64725 10.9914 7.1951C11.3613 7.48603 12.0831 7.3914 12.1038 8.19576C12.1153 8.6482 11.8375 8.744 11.6549 8.98058C11.4343 9.26682 11.0815 9.15694 10.8946 9.05527C9.91841 8.52463 8.95847 7.95919 8.03703 7.34174C7.86123 7.22403 7.78107 6.79428 7.83941 6.55066C7.92353 6.19912 8.26243 5.99578 8.6914 5.83154V5.83193Z" fill="#DC2626"/>
<path d="M28.2123 0.989764C28.127 1.80039 27.6571 2.37091 27.3909 3.02356C27.2298 3.4189 27.0325 3.80055 26.8754 4.19746C26.6913 4.6624 26.2532 4.88178 25.8809 4.74335C25.3575 4.54861 24.9892 4.06881 25.3448 3.46895C25.8853 2.55705 26.077 1.4637 26.8349 0.674977C27.0214 0.481022 27.2302 0.152549 27.5865 0.332036C27.8849 0.482586 28.1302 0.718383 28.2127 0.989764H28.2123Z" fill="#DC2626"/>
</g>
<path d="M63.8125 24.4546H61L66.1207 9.90911H69.3736L74.5014 24.4546H71.6889L67.804 12.8921H67.6903L63.8125 24.4546ZM63.9048 18.7514H71.5753V20.8679H63.9048V18.7514Z" fill="#180303"/>
<path d="M81.6925 13.5455V15.5341H75.2436V13.5455H81.6925ZM76.8558 24.4546V12.5156C76.8558 11.7817 77.0073 11.171 77.3104 10.6833C77.6181 10.1956 78.0301 9.83099 78.5462 9.58951C79.0623 9.34803 79.6352 9.22729 80.2649 9.22729C80.71 9.22729 81.1054 9.26281 81.451 9.33383C81.7966 9.40485 82.0523 9.46877 82.218 9.52559L81.7067 11.5142C81.5978 11.4811 81.4605 11.4479 81.2947 11.4148C81.129 11.3769 80.9444 11.358 80.7408 11.358C80.2625 11.358 79.924 11.474 79.7251 11.706C79.531 11.9333 79.4339 12.26 79.4339 12.6861V24.4546H76.8558Z" fill="#180303"/>
<path d="M88.1254 24.6676C87.0316 24.6676 86.087 24.4404 85.2915 23.9858C84.5008 23.5265 83.8924 22.8779 83.4663 22.0398C83.0401 21.197 82.8271 20.205 82.8271 19.0639C82.8271 17.9418 83.0401 16.9569 83.4663 16.1094C83.8971 15.2571 84.4985 14.5942 85.2702 14.1208C86.042 13.6425 86.9487 13.4034 87.9904 13.4034C88.6628 13.4034 89.2972 13.5123 89.8938 13.7301C90.4951 13.9432 91.0254 14.2746 91.4847 14.7245C91.9487 15.1743 92.3133 15.7472 92.5785 16.4432C92.8436 17.1345 92.9762 17.9584 92.9762 18.9148V19.7031H84.0344V17.9702H90.5117C90.507 17.4778 90.4005 17.0398 90.1921 16.6563C89.9838 16.268 89.6926 15.9626 89.3185 15.7401C88.9492 15.5175 88.5183 15.4063 88.0259 15.4063C87.5004 15.4063 87.0387 15.5341 86.641 15.7898C86.2433 16.0407 85.9331 16.3722 85.7106 16.7841C85.4928 17.1913 85.3815 17.6388 85.3768 18.1264V19.6392C85.3768 20.2737 85.4928 20.8182 85.7248 21.2728C85.9568 21.7226 86.2811 22.0682 86.6978 22.3097C87.1145 22.5464 87.6022 22.6648 88.1609 22.6648C88.5349 22.6648 88.8735 22.6127 89.1765 22.5085C89.4795 22.3996 89.7423 22.241 89.9648 22.0327C90.1874 21.8244 90.3555 21.5663 90.4691 21.2585L92.8697 21.5284C92.7182 22.1629 92.4293 22.7169 92.0032 23.1904C91.5818 23.6591 91.042 24.0237 90.3839 24.2841C89.7257 24.5398 88.9729 24.6676 88.1254 24.6676Z" fill="#180303"/>
<path d="M100.599 13.5455V15.5341H94.3274V13.5455H100.599ZM95.8757 10.9318H98.4467V21.1733C98.4467 21.519 98.4988 21.7841 98.603 21.9688C98.7119 22.1487 98.8539 22.2718 99.0291 22.3381C99.2043 22.4044 99.3984 22.4375 99.6115 22.4375C99.7725 22.4375 99.9193 22.4257 100.052 22.402C100.189 22.3783 100.293 22.357 100.364 22.3381L100.798 24.348C100.66 24.3954 100.464 24.4475 100.208 24.5043C99.9571 24.5611 99.6494 24.5942 99.2848 24.6037C98.6409 24.6227 98.0608 24.5256 97.5447 24.3125C97.0286 24.0947 96.6191 23.7585 96.3161 23.304C96.0178 22.8495 95.871 22.2813 95.8757 21.5995V10.9318Z" fill="#180303"/>
<path d="M106.68 24.6463C105.823 24.6463 105.056 24.4262 104.379 23.9858C103.702 23.5455 103.167 22.9063 102.774 22.0682C102.381 21.2301 102.184 20.2121 102.184 19.0142C102.184 17.8021 102.383 16.7794 102.781 15.946C103.183 15.108 103.725 14.4759 104.407 14.0497C105.089 13.6189 105.849 13.4034 106.687 13.4034C107.326 13.4034 107.852 13.5123 108.264 13.7301C108.676 13.9432 109.002 14.2013 109.244 14.5043C109.485 14.8026 109.672 15.0843 109.805 15.3495H109.912V9.90911H112.49V24.4546H109.961V22.7358H109.805C109.672 23.001 109.481 23.2827 109.23 23.581C108.979 23.8745 108.647 24.1255 108.235 24.3338C107.824 24.5422 107.305 24.6463 106.68 24.6463ZM107.397 22.537C107.942 22.537 108.406 22.3902 108.789 22.0966C109.173 21.7983 109.464 21.384 109.663 20.8537C109.862 20.3234 109.961 19.7055 109.961 19C109.961 18.2945 109.862 17.6814 109.663 17.1605C109.469 16.6397 109.18 16.2349 108.797 15.946C108.418 15.6572 107.951 15.5128 107.397 15.5128C106.824 15.5128 106.346 15.662 105.963 15.9602C105.579 16.2585 105.29 16.6705 105.096 17.196C104.902 17.7216 104.805 18.3229 104.805 19C104.805 19.6818 104.902 20.2903 105.096 20.8253C105.295 21.3556 105.586 21.7746 105.97 22.0824C106.358 22.3854 106.834 22.537 107.397 22.537Z" fill="#180303"/>
<path d="M120.059 24.6676C118.965 24.6676 118.021 24.4404 117.225 23.9858C116.434 23.5265 115.826 22.8779 115.4 22.0398C114.974 21.197 114.761 20.205 114.761 19.0639C114.761 17.9418 114.974 16.9569 115.4 16.1094C115.831 15.2571 116.432 14.5942 117.204 14.1208C117.976 13.6425 118.882 13.4034 119.924 13.4034C120.596 13.4034 121.231 13.5123 121.827 13.7301C122.429 13.9432 122.959 14.2746 123.418 14.7245C123.882 15.1743 124.247 15.7472 124.512 16.4432C124.777 17.1345 124.91 17.9584 124.91 18.9148V19.7031H115.968V17.9702H122.445C122.441 17.4778 122.334 17.0398 122.126 16.6563C121.917 16.268 121.626 15.9626 121.252 15.7401C120.883 15.5175 120.452 15.4063 119.96 15.4063C119.434 15.4063 118.972 15.5341 118.575 15.7898C118.177 16.0407 117.867 16.3722 117.644 16.7841C117.426 17.1913 117.315 17.6388 117.31 18.1264V19.6392C117.31 20.2737 117.426 20.8182 117.658 21.2728C117.89 21.7226 118.215 22.0682 118.631 22.3097C119.048 22.5464 119.536 22.6648 120.094 22.6648C120.469 22.6648 120.807 22.6127 121.11 22.5085C121.413 22.3996 121.676 22.241 121.898 22.0327C122.121 21.8244 122.289 21.5663 122.403 21.2585L124.803 21.5284C124.652 22.1629 124.363 22.7169 123.937 23.1904C123.515 23.6591 122.976 24.0237 122.317 24.2841C121.659 24.5398 120.906 24.6676 120.059 24.6676Z" fill="#180303"/>
<path d="M135.707 16.429L133.363 16.6847C133.297 16.4479 133.181 16.2254 133.015 16.0171C132.854 15.8087 132.636 15.6406 132.362 15.5128C132.087 15.385 131.751 15.321 131.353 15.321C130.818 15.321 130.368 15.437 130.004 15.6691C129.644 15.9011 129.466 16.2017 129.471 16.571C129.466 16.8883 129.583 17.1463 129.819 17.3452C130.061 17.5441 130.458 17.7074 131.012 17.8353L132.873 18.233C133.905 18.4555 134.672 18.8083 135.174 19.2912C135.681 19.7742 135.937 20.4063 135.941 21.1875C135.937 21.8741 135.735 22.4801 135.338 23.0057C134.945 23.5265 134.398 23.9337 133.697 24.2273C132.996 24.5209 132.191 24.6676 131.282 24.6676C129.947 24.6676 128.872 24.3883 128.058 23.8296C127.243 23.2661 126.758 22.4825 126.602 21.4787L129.109 21.2372C129.223 21.7297 129.464 22.1013 129.833 22.3523C130.203 22.6032 130.683 22.7287 131.275 22.7287C131.886 22.7287 132.376 22.6032 132.745 22.3523C133.119 22.1013 133.306 21.7912 133.306 21.4219C133.306 21.1094 133.186 20.8513 132.944 20.6477C132.708 20.4442 132.338 20.2879 131.836 20.179L129.975 19.7884C128.929 19.5706 128.155 19.2036 127.653 18.6875C127.151 18.1667 126.903 17.5085 126.907 16.7131C126.903 16.0407 127.085 15.4584 127.454 14.9659C127.828 14.4688 128.347 14.0853 129.01 13.8154C129.677 13.5407 130.447 13.4034 131.318 13.4034C132.596 13.4034 133.602 13.6757 134.336 14.2202C135.075 14.7647 135.532 15.501 135.707 16.429Z" fill="#180303"/>
<path d="M143.509 13.5455V15.5341H137.238V13.5455H143.509ZM138.786 10.9318H141.357V21.1733C141.357 21.519 141.409 21.7841 141.513 21.9688C141.622 22.1487 141.764 22.2718 141.939 22.3381C142.114 22.4044 142.309 22.4375 142.522 22.4375C142.683 22.4375 142.829 22.4257 142.962 22.402C143.099 22.3783 143.203 22.357 143.275 22.3381L143.708 24.348C143.57 24.3954 143.374 24.4475 143.118 24.5043C142.867 24.5611 142.56 24.5942 142.195 24.6037C141.551 24.6227 140.971 24.5256 140.455 24.3125C139.939 24.0947 139.529 23.7585 139.226 23.304C138.928 22.8495 138.781 22.2813 138.786 21.5995V10.9318Z" fill="#180303"/>
<path d="M150.371 24.6676C149.278 24.6676 148.333 24.4404 147.538 23.9858C146.747 23.5265 146.138 22.8779 145.712 22.0398C145.286 21.197 145.073 20.205 145.073 19.0639C145.073 17.9418 145.286 16.9569 145.712 16.1094C146.143 15.2571 146.745 14.5942 147.516 14.1208C148.288 13.6425 149.195 13.4034 150.237 13.4034C150.909 13.4034 151.543 13.5123 152.14 13.7301C152.741 13.9432 153.272 14.2746 153.731 14.7245C154.195 15.1743 154.559 15.7472 154.825 16.4432C155.09 17.1345 155.222 17.9584 155.222 18.9148V19.7031H146.281V17.9702H152.758C152.753 17.4778 152.647 17.0398 152.438 16.6563C152.23 16.268 151.939 15.9626 151.565 15.7401C151.195 15.5175 150.764 15.4063 150.272 15.4063C149.746 15.4063 149.285 15.5341 148.887 15.7898C148.489 16.0407 148.179 16.3722 147.957 16.7841C147.739 17.1913 147.628 17.6388 147.623 18.1264V19.6392C147.623 20.2737 147.739 20.8182 147.971 21.2728C148.203 21.7226 148.527 22.0682 148.944 22.3097C149.361 22.5464 149.848 22.6648 150.407 22.6648C150.781 22.6648 151.12 22.6127 151.423 22.5085C151.726 22.3996 151.988 22.241 152.211 22.0327C152.433 21.8244 152.602 21.5663 152.715 21.2585L155.116 21.5284C154.964 22.1629 154.675 22.7169 154.249 23.1904C153.828 23.6591 153.288 24.0237 152.63 24.2841C151.972 24.5398 151.219 24.6676 150.371 24.6676Z" fill="#180303"/>
<path d="M159.741 21.0313L159.734 17.9276H160.146L164.066 13.5455H167.071L162.248 18.9148H161.716L159.741 21.0313ZM157.397 24.4546V9.90911H159.968V24.4546H157.397ZM164.244 24.4546L160.693 19.4901L162.426 17.679L167.319 24.4546H164.244Z" fill="#180303"/>
<path d="M170.368 24.6108C169.937 24.6108 169.568 24.4593 169.26 24.1563C168.952 23.8532 168.801 23.4839 168.805 23.0483C168.801 22.6222 168.952 22.2576 169.26 21.9546C169.568 21.6515 169.937 21.5 170.368 21.5C170.785 21.5 171.147 21.6515 171.455 21.9546C171.767 22.2576 171.926 22.6222 171.93 23.0483C171.926 23.3371 171.85 23.5999 171.703 23.8367C171.561 24.0734 171.372 24.2628 171.135 24.4049C170.903 24.5422 170.647 24.6108 170.368 24.6108Z" fill="#180303"/>
<path d="M179.343 24.6676C178.278 24.6676 177.355 24.4333 176.574 23.9645C175.792 23.4958 175.186 22.84 174.755 21.9972C174.329 21.1544 174.116 20.1695 174.116 19.0426C174.116 17.9157 174.329 16.9285 174.755 16.081C175.186 15.2335 175.792 14.5753 176.574 14.1066C177.355 13.6378 178.278 13.4034 179.343 13.4034C180.409 13.4034 181.332 13.6378 182.113 14.1066C182.895 14.5753 183.498 15.2335 183.924 16.081C184.355 16.9285 184.571 17.9157 184.571 19.0426C184.571 20.1695 184.355 21.1544 183.924 21.9972C183.498 22.84 182.895 23.4958 182.113 23.9645C181.332 24.4333 180.409 24.6676 179.343 24.6676ZM179.358 22.608C179.935 22.608 180.418 22.4494 180.806 22.1321C181.195 21.8102 181.484 21.3793 181.673 20.8395C181.867 20.2997 181.964 19.6984 181.964 19.0355C181.964 18.3679 181.867 17.7642 181.673 17.2245C181.484 16.6799 181.195 16.2467 180.806 15.9247C180.418 15.6028 179.935 15.4418 179.358 15.4418C178.766 15.4418 178.273 15.6028 177.88 15.9247C177.492 16.2467 177.201 16.6799 177.007 17.2245C176.817 17.7642 176.723 18.3679 176.723 19.0355C176.723 19.6984 176.817 20.2997 177.007 20.8395C177.201 21.3793 177.492 21.8102 177.88 22.1321C178.273 22.4494 178.766 22.608 179.358 22.608Z" fill="#180303"/>
<path d="M186.753 24.4546V13.5455H189.246V15.3637H189.359C189.558 14.7339 189.899 14.2486 190.382 13.9077C190.87 13.562 191.426 13.3892 192.051 13.3892C192.193 13.3892 192.352 13.3963 192.527 13.4105C192.707 13.42 192.856 13.4366 192.974 13.4602V15.8253C192.866 15.7874 192.693 15.7543 192.456 15.7259C192.224 15.6927 191.999 15.6762 191.781 15.6762C191.312 15.6762 190.891 15.778 190.517 15.9816C190.148 16.1804 189.857 16.4574 189.643 16.8125C189.43 17.1676 189.324 17.5772 189.324 18.0412V24.4546H186.753Z" fill="#180303"/>
<path d="M198.978 28.7728C198.054 28.7728 197.261 28.6473 196.598 28.3963C195.936 28.1501 195.403 27.8187 195 27.402C194.598 26.9853 194.319 26.5237 194.162 26.0171L196.478 25.456C196.582 25.6691 196.733 25.8798 196.932 26.0881C197.131 26.3012 197.399 26.4763 197.735 26.6137C198.076 26.7557 198.504 26.8267 199.02 26.8267C199.749 26.8267 200.353 26.6492 200.831 26.2941C201.31 25.9437 201.549 25.366 201.549 24.5611V22.4943H201.421C201.288 22.7595 201.094 23.0317 200.838 23.3111C200.587 23.5905 200.254 23.8248 199.837 24.0142C199.425 24.2036 198.907 24.2983 198.282 24.2983C197.444 24.2983 196.684 24.1018 196.002 23.7088C195.325 23.3111 194.785 22.7192 194.382 21.9333C193.985 21.1425 193.786 20.153 193.786 18.9645C193.786 17.7666 193.985 16.7557 194.382 15.9318C194.785 15.1032 195.327 14.4759 196.009 14.0497C196.691 13.6189 197.451 13.4034 198.289 13.4034C198.928 13.4034 199.453 13.5123 199.865 13.7301C200.282 13.9432 200.614 14.2013 200.86 14.5043C201.106 14.8026 201.293 15.0843 201.421 15.3495H201.563V13.5455H204.098V24.6321C204.098 25.5649 203.876 26.3367 203.431 26.9475C202.986 27.5583 202.377 28.0152 201.605 28.3182C200.834 28.6212 199.958 28.7728 198.978 28.7728ZM198.999 22.2813C199.543 22.2813 200.007 22.1487 200.391 21.8835C200.775 21.6184 201.066 21.2372 201.265 20.7401C201.463 20.2429 201.563 19.6463 201.563 18.9503C201.563 18.2638 201.463 17.6624 201.265 17.1463C201.07 16.6302 200.782 16.2301 200.398 15.946C200.019 15.6572 199.553 15.5128 198.999 15.5128C198.426 15.5128 197.948 15.662 197.564 15.9602C197.181 16.2585 196.892 16.6681 196.698 17.1889C196.504 17.705 196.407 18.2922 196.407 18.9503C196.407 19.6179 196.504 20.2027 196.698 20.7046C196.897 21.2017 197.188 21.59 197.571 21.8693C197.96 22.144 198.435 22.2813 198.999 22.2813Z" fill="#180303"/>
<defs>
<clipPath id="clip0_3623_35835">
<rect width="52" height="38" fill="white"/>
</clipPath>
</defs>
</svg>
