<svg width="52" height="38" viewBox="0 0 52 38" fill="none" xmlns="http://www.w3.org/2000/svg">
<g clip-path="url(#clip0_2467_37243)">
<path d="M30.0207 11.7519C28.4115 11.7519 26.802 11.755 25.1928 11.7484C24.9813 11.7476 23.415 13.0592 23.492 13.2293C23.7111 13.7138 24.1555 13.3857 24.471 13.4037C26.4532 13.5167 28.4401 13.5413 30.4231 13.6398C31.7707 13.7071 32.9362 15.3233 32.5644 16.5926C32.4763 16.8929 32.6576 17.0008 32.7961 17.0943C33.9045 17.8412 34.5783 18.7421 34.3585 20.1851C34.2954 20.5988 34.9569 20.4068 35.2434 20.4134C36.7946 20.4494 38.2641 20.2148 39.632 19.3385C40.2058 18.9709 40.6935 18.5353 41.2201 18.1313C41.8871 17.6195 42.6514 17.9511 43.3515 17.944C45.688 17.9206 48.0253 18.0465 50.3627 18.0547C51.5647 18.059 51.979 18.4684 51.4913 19.5062C51.2377 20.0455 50.5575 19.7674 50.0829 19.7631C48.0515 19.7455 46.0146 19.744 43.9912 19.5911C42.5872 19.4847 41.5709 19.9465 40.4427 20.7626C39.055 21.7664 37.3351 22.2087 35.5244 22.0327C34.7049 21.9529 33.8719 22.0069 33.0449 22.0069C32.6842 22.0069 32.8739 22.3366 32.86 22.4437C32.5588 24.7848 32.1676 25.1767 29.8437 25.2494C29.0754 25.2736 29.4104 25.8715 29.4056 26.1296C29.3727 28.0008 27.9473 28.5455 26.4722 28.5689C25.2611 28.5881 24.0488 28.5361 22.8377 28.5075C20.5967 28.4548 18.3467 28.4966 16.1181 28.3026C14.7744 28.1857 13.4185 27.8776 12.2383 27.0619C11.8871 26.819 11.4299 26.6599 11.1922 26.3091C10.5426 25.3515 9.55094 25.484 8.61839 25.4543C7.15328 25.4074 5.6862 25.4191 4.2207 25.3824C3.04409 25.3526 1.86908 25.2764 0.692868 25.2435C0.0638898 25.2255 0 24.7786 0 24.3528C0 23.8444 0.362704 23.6133 0.851204 23.6227C3.31632 23.6712 5.78104 23.7302 8.24576 23.7881C9.08744 23.808 9.93071 23.8127 10.7692 23.8769C10.9518 23.8909 11.1319 24.1142 11.2871 24.2675C12.5256 25.4915 13.9355 26.3263 15.7387 26.5234C18.7078 26.8476 21.6864 26.7291 24.6599 26.8351C25.4567 26.8636 26.2504 26.9618 27.0524 26.8265C27.4453 26.7604 27.7084 26.5406 27.7492 26.225C27.8072 25.7773 27.6588 25.3151 27.0881 25.2768C25.394 25.1638 23.698 25.0676 22.0011 25.003C21.5638 24.9866 21.4194 24.7235 21.3785 24.4235C21.3174 23.9754 21.4618 23.5695 22.0095 23.5046C23.7353 23.2993 25.4591 23.5292 27.1845 23.5406C28.3131 23.548 29.4421 23.6016 30.5703 23.5859C30.885 23.5816 31.1457 23.3149 31.185 22.9915C31.2548 22.4187 30.931 21.9647 30.3933 21.9385C27.9215 21.8173 25.4452 21.7825 22.9718 21.6843C22.4769 21.6648 21.8166 22.0925 21.5599 21.2025C21.2698 20.1976 21.9444 20.0756 22.6079 20.0732C24.4047 20.067 26.2024 20.1354 27.9992 20.1784C29.2501 20.2081 30.5017 20.223 31.7509 20.2875C32.3334 20.3176 32.6326 19.9555 32.6961 19.5422C32.7914 18.9255 32.3703 18.6283 31.7429 18.6127C29.4116 18.5556 27.0802 18.4856 24.7484 18.432C23.9841 18.4144 23.2138 18.484 22.4559 18.4137C22.0551 18.3765 21.7015 18.0461 21.6714 17.6159C21.6233 16.9254 22.1115 16.7291 22.7059 16.7416C24.896 16.7885 27.0857 16.8436 29.2754 16.9078C29.6016 16.9171 29.9155 16.9156 30.2449 16.8788C30.8469 16.812 31.0148 16.4111 30.9088 16.0111C30.7822 15.5344 30.3683 15.2419 29.7913 15.2263C27.3722 15.161 24.9536 15.064 22.5345 14.9968C21.723 14.9741 20.9079 14.9756 20.0975 15.0218C19.4106 15.0609 18.8233 14.7864 18.7459 14.1803C18.6725 13.605 19.3416 13.3192 19.8213 13.0701C20.5805 12.6759 21.3507 12.2876 22.1523 11.9908C22.7146 11.7828 23.0146 11.5587 22.9428 10.8983C22.8686 10.2147 22.3353 10.1056 21.9484 10.2218C21.065 10.4869 20.244 10.9464 19.3824 11.2897C18.2963 11.7222 17.1515 12.0331 16.1106 12.55C14.8522 13.1749 13.2562 13.1988 12.3208 14.3582C11.3113 15.6091 10.047 15.6689 8.6041 15.5872C6.18144 15.45 3.75164 15.4253 1.32423 15.387C0.692074 15.3772 0.239686 15.2306 0.243258 14.5334C0.247623 13.675 0.935729 13.7255 1.49844 13.7384C4.31911 13.8029 7.139 13.9015 9.95968 13.9714C10.1037 13.975 10.2803 13.8573 10.3938 13.7482C11.7212 12.4695 13.301 11.7019 15.1022 11.2565C16.0022 11.034 16.8209 10.501 17.688 10.1354C18.2689 9.89056 18.8598 9.65516 19.4662 9.48506C20.0424 9.32356 20.1729 8.88364 20.3321 8.42104C20.74 7.23424 21.9432 6.58628 23.1877 6.68404C24.7893 6.80996 26.4012 6.80683 28.0092 6.8518C28.3195 6.8604 28.631 6.83577 28.9417 6.82599C29.0663 6.82208 29.2346 7.03324 29.2981 6.80996C29.3258 6.7122 29.1846 6.5464 29.0889 6.43847C27.9901 5.19575 28.1179 4.06174 28.9326 2.85851C29.4465 2.0995 31.3263 1.94778 32.1215 2.4006C32.9279 2.85929 33.8382 3.13732 34.6894 3.52445C35.5279 3.90571 36.3704 4.28658 37.1712 4.73628C37.9387 5.1672 38.8069 5.34239 39.5756 5.73265C40.2042 6.05173 40.9336 6.31647 41.3427 6.91515C42.1895 8.15357 43.4364 8.08475 44.7126 8.09452C46.5932 8.10899 48.473 8.19306 50.3535 8.2439C50.6083 8.25094 50.8639 8.23803 51.1186 8.23295C51.7671 8.22044 52.0881 8.6455 51.981 9.16284C51.8738 9.68018 51.3849 9.93983 50.7893 9.92067C48.6075 9.85107 46.4253 9.76817 44.2427 9.75214C42.834 9.74197 41.5919 9.64851 40.5895 8.37372C39.9431 7.55176 38.8482 7.10871 37.7208 6.87292C37.1097 6.74505 36.574 6.28988 35.9871 6.01889C34.8612 5.4992 33.7227 5.00649 32.5906 4.50087C31.9945 4.23458 31.4771 3.81069 30.7556 3.80678C30.304 3.80443 30.0846 4.0199 30.0028 4.35502C29.8608 4.93571 30.2644 5.26887 30.7171 5.51562C31.4572 5.91878 32.1818 6.3763 32.968 6.6641C34.3997 7.18809 34.0771 8.60952 34.6553 9.55427C35.2105 10.4615 35.8763 11.3519 36.9708 11.8059C37.5415 12.0428 38.1192 12.1555 38.7069 12.2958C39.1169 12.394 39.3117 12.8621 39.1617 13.2191C38.9526 13.7173 38.4839 13.9761 37.8974 13.8584C36.1859 13.5143 34.7878 12.6665 33.7533 11.2745C33.2715 10.6265 32.9505 9.90542 32.7596 9.11122C32.5767 8.35143 31.8664 8.5884 31.356 8.56494C29.5874 8.484 27.8167 8.44763 26.0464 8.40344C24.927 8.37568 23.8071 8.36277 22.6873 8.34948C22.6412 8.34909 22.594 8.41635 22.5472 8.45232C22.6087 8.50589 22.6623 8.57589 22.7333 8.61069C23.1182 8.79956 23.7023 8.87934 23.8627 9.18044C24.754 10.8556 26.302 9.89995 27.533 10.1342C28.5746 10.3324 29.6707 10.0794 30.7167 10.3758C31.1132 10.4881 31.0933 10.9053 31.0425 11.1063C30.9259 11.5689 30.5652 11.87 30.0223 11.7519H30.0207Z" fill="#DC2626"/>
<path d="M17.8661 1.86529C18.1598 2.78345 18.4471 3.70396 18.7507 4.61899C18.8463 4.9068 18.9336 5.19304 18.7638 5.46715C18.5197 5.86132 18.1264 6.05293 17.6879 5.92662C17.4241 5.85076 17.3086 5.58603 17.2236 5.25482C16.9792 4.29912 16.532 3.39347 16.2959 2.4366C16.1451 1.82502 15.7149 1.23103 15.9205 0.583076C16.0109 0.298009 16.2899 0.00629372 16.709 3.70964e-05C17.5506 -0.0124762 17.4883 0.715638 17.7229 1.19114C17.8225 1.39331 17.8467 1.63145 17.905 1.85356C17.8919 1.85747 17.8788 1.86138 17.8661 1.8649V1.86529Z" fill="#DC2626"/>
<path d="M24.6706 32.3855C24.7829 34.04 24.854 35.5924 25.0083 37.1366C25.0758 37.8096 24.575 37.9895 24.1988 37.9996C23.6944 38.0133 23.3571 37.5292 23.3075 37.0506C23.1686 35.7164 23.1028 34.3747 23.0083 33.0358C22.9789 32.6182 23.0805 32.2838 23.446 31.998C23.8198 31.7055 24.0801 32.0648 24.3948 32.075C24.5202 32.0789 24.7187 32.2615 24.671 32.3851L24.6706 32.3855Z" fill="#DC2626"/>
<path d="M30.2957 31.1201C30.3219 30.7419 30.2354 30.3669 30.5774 30.2406C30.9616 30.0991 31.4203 30.0631 31.7529 30.3822C32.5362 31.1338 33.2906 31.9151 34.0596 32.6815C34.4303 33.051 34.0148 33.3603 33.9874 33.699C33.6699 33.6716 33.4307 34.0591 33.0493 33.8077C32.085 33.1723 31.2993 32.3507 30.4981 31.542C30.3572 31.4001 30.2096 31.2636 30.2961 31.1197L30.2957 31.1201Z" fill="#DC2626"/>
<path d="M16.5304 32.1559C16.7594 32.5407 16.2963 32.7553 16.1201 33.0052C15.5106 33.8671 14.9891 34.8196 14.1284 35.4699C13.8816 35.6565 13.5216 35.4871 13.2323 35.2255C12.7685 34.8052 13.0212 34.3445 13.2264 34.0622C13.8462 33.2093 14.5808 32.4378 15.2625 31.628C15.5149 31.3284 15.8427 31.3855 16.1193 31.4927C16.3415 31.5787 16.5614 31.7734 16.53 32.1559H16.5304Z" fill="#DC2626"/>
<path d="M8.6914 5.83193C9.45848 6.27224 10.295 6.64725 10.9914 7.1951C11.3613 7.48603 12.0831 7.3914 12.1038 8.19576C12.1153 8.6482 11.8375 8.744 11.6549 8.98058C11.4343 9.26682 11.0815 9.15694 10.8946 9.05527C9.91841 8.52463 8.95847 7.95919 8.03703 7.34174C7.86123 7.22403 7.78107 6.79428 7.83941 6.55066C7.92353 6.19912 8.26243 5.99578 8.6914 5.83154V5.83193Z" fill="#DC2626"/>
<path d="M28.2123 0.989764C28.127 1.80039 27.6571 2.37091 27.3909 3.02356C27.2298 3.4189 27.0325 3.80055 26.8754 4.19746C26.6913 4.6624 26.2532 4.88178 25.8809 4.74335C25.3575 4.54861 24.9892 4.06881 25.3448 3.46895C25.8853 2.55705 26.077 1.4637 26.8349 0.674977C27.0214 0.481022 27.2302 0.152549 27.5865 0.332036C27.8849 0.482586 28.1302 0.718383 28.2127 0.989764H28.2123Z" fill="#DC2626"/>
</g>
<defs>
<clipPath id="clip0_2467_37243">
<rect width="52" height="38" fill="white"/>
</clipPath>
</defs>
</svg>
