<svg width="17" height="15" viewBox="0 0 17 15" fill="none" xmlns="http://www.w3.org/2000/svg">
    <path
        d="M8.5093 0.5C4.0718 0.5 0.509303 3.4375 0.509303 7C0.509303 8.5 1.10305 9.875 2.1343 10.9688C1.6968 12.1875 0.728053 13.25 0.696803 13.25C0.478053 13.4688 0.446803 13.7812 0.540553 14.0625C0.665553 14.3438 0.946803 14.5 1.2593 14.5C3.16555 14.5 4.6968 13.7188 5.60305 13.0625C6.5093 13.3438 7.47805 13.5 8.5093 13.5C12.9156 13.5 16.5093 10.5938 16.5093 7C16.5093 3.4375 12.9156 0.5 8.5093 0.5ZM8.5093 12C7.66555 12 6.8218 11.875 6.04055 11.625L5.3218 11.4062L4.72805 11.8438C4.29055 12.1562 3.66555 12.5 2.91555 12.75C3.16555 12.375 3.3843 11.9375 3.54055 11.5L3.8843 10.625L3.22805 9.9375C2.66555 9.34375 2.0093 8.34375 2.0093 7C2.0093 4.25 4.91555 2 8.5093 2C12.0718 2 15.0093 4.25 15.0093 7C15.0093 9.78125 12.0718 12 8.5093 12Z"
        fill="white" />
</svg>