<svg width="15" height="15" viewBox="0 0 15 15" fill="none" xmlns="http://www.w3.org/2000/svg">
<path d="M13.2344 9.30078L10.4453 8.09766C9.95312 7.90625 9.35156 8.04297 9.02344 8.48047L8.09375 9.57422C6.67188 8.78125 5.46875 7.57812 4.67578 6.15625L5.79688 5.22656C6.20703 4.89844 6.34375 4.29688 6.125 3.80469L4.94922 1.01562C4.70312 0.46875 4.10156 0.167969 3.52734 0.304688L0.957031 0.90625C0.382812 1.01562 0 1.50781 0 2.10938C0 8.80859 5.44141 14.25 12.1406 14.25C12.7422 14.25 13.2344 13.8672 13.3711 13.293L13.9453 10.7227C14.082 10.1484 13.7812 9.54688 13.2344 9.30078ZM12.4961 13.1016C12.4688 13.2656 12.332 13.375 12.1406 13.375C5.93359 13.375 0.875 8.31641 0.875 2.10938C0.875 1.91797 0.984375 1.78125 1.14844 1.75391L3.71875 1.15234C3.74609 1.15234 3.77344 1.125 3.80078 1.125C3.9375 1.125 4.07422 1.23438 4.12891 1.37109L5.33203 4.13281C5.38672 4.29688 5.35938 4.46094 5.22266 4.57031L3.85547 5.69141C3.69141 5.82812 3.63672 6.04688 3.74609 6.23828C4.64844 8.07031 6.17969 9.60156 8.03906 10.5039C8.20312 10.6133 8.42188 10.5586 8.55859 10.3945L9.67969 9.02734C9.78906 8.89062 9.98047 8.86328 10.1172 8.91797L12.8789 10.0938C13.043 10.1758 13.1523 10.3398 13.0977 10.5312L12.4961 13.1016Z" fill="white"/>
</svg>
