<svg width="52" height="27" viewBox="0 0 52 27" fill="none" xmlns="http://www.w3.org/2000/svg">
<path d="M30.0207 9.75188C28.4115 9.75188 26.802 9.75501 25.1928 9.74836C24.9813 9.74758 23.415 11.0591 23.492 11.2292C23.7111 11.7137 24.1555 11.3856 24.471 11.4036C26.4532 11.5166 28.4401 11.5413 30.4231 11.6398C31.7707 11.7071 32.9362 13.3232 32.5644 14.5926C32.4763 14.8929 32.6576 15.0008 32.7961 15.0943C33.9045 15.8411 34.5783 16.7421 34.3585 18.185C34.2954 18.5987 34.9569 18.4067 35.2434 18.4134C36.7946 18.4494 38.2641 18.2147 39.632 17.3384C40.2058 16.9709 40.6935 16.5352 41.2201 16.1313C41.8871 15.6194 42.6514 15.951 43.3515 15.944C45.688 15.9205 48.0253 16.0464 50.3627 16.0546C51.5647 16.0589 51.979 16.4684 51.4913 17.5062C51.2377 18.0454 50.5575 17.7674 50.0829 17.7631C48.0515 17.7455 46.0146 17.7439 43.9912 17.591C42.5872 17.4847 41.5709 17.9465 40.4427 18.7626C39.055 19.7664 37.3351 20.2087 35.5244 20.0327C34.7049 19.9529 33.8719 20.0069 33.0449 20.0069C32.6842 20.0069 32.8739 20.3365 32.86 20.4437C32.5588 22.7848 32.1676 23.1766 29.8437 23.2494C29.0754 23.2736 29.4104 23.8715 29.4056 24.1296C29.3727 26.0007 27.9473 26.5454 26.4722 26.5689C25.2611 26.5881 24.0488 26.5361 22.8377 26.5075C20.5967 26.4547 18.3467 26.4966 16.1181 26.3026C14.7744 26.1857 13.4185 25.8775 12.2383 25.0618C11.8871 24.819 11.4299 24.6598 11.1922 24.3091C10.5426 23.3514 9.55094 23.484 8.61839 23.4543C7.15328 23.4074 5.6862 23.4191 4.2207 23.3823C3.04409 23.3526 1.86908 23.2764 0.692868 23.2435C0.0638898 23.2255 0 22.7786 0 22.3527C0 21.8444 0.362704 21.6133 0.851204 21.6227C3.31632 21.6711 5.78104 21.7302 8.24576 21.7881C9.08744 21.808 9.93071 21.8127 10.7692 21.8768C10.9518 21.8909 11.1319 22.1142 11.2871 22.2675C12.5256 23.4914 13.9355 24.3263 15.7387 24.5234C18.7078 24.8475 21.6864 24.7291 24.6599 24.835C25.4567 24.8636 26.2504 24.9617 27.0524 24.8264C27.4453 24.7603 27.7084 24.5406 27.7492 24.225C27.8072 23.7773 27.6588 23.3151 27.0881 23.2767C25.394 23.1637 23.698 23.0675 22.0011 23.003C21.5638 22.9866 21.4194 22.7234 21.3785 22.4235C21.3174 21.9754 21.4618 21.5695 22.0095 21.5046C23.7353 21.2993 25.4591 21.5292 27.1845 21.5405C28.3131 21.548 29.4421 21.6015 30.5703 21.5859C30.885 21.5816 31.1457 21.3149 31.185 20.9915C31.2548 20.4186 30.931 19.9646 30.3933 19.9384C27.9215 19.8172 25.4452 19.7824 22.9718 19.6843C22.4769 19.6647 21.8166 20.0925 21.5599 19.2025C21.2698 18.1975 21.9444 18.0755 22.6079 18.0732C24.4047 18.0669 26.2024 18.1354 27.9992 18.1784C29.2501 18.2081 30.5017 18.223 31.7509 18.2875C32.3334 18.3176 32.6326 17.9555 32.6961 17.5422C32.7914 16.9255 32.3703 16.6283 31.7429 16.6127C29.4116 16.5556 27.0802 16.4856 24.7484 16.432C23.9841 16.4144 23.2138 16.484 22.4559 16.4136C22.0551 16.3765 21.7015 16.046 21.6714 15.6159C21.6233 14.9253 22.1115 14.729 22.7059 14.7415C24.896 14.7885 27.0857 14.8436 29.2754 14.9077C29.6016 14.9171 29.9155 14.9156 30.2449 14.8788C30.8469 14.8119 31.0148 14.4111 30.9088 14.0111C30.7822 13.5344 30.3683 13.2419 29.7913 13.2263C27.3722 13.161 24.9536 13.064 22.5345 12.9967C21.723 12.974 20.9079 12.9756 20.0975 13.0217C19.4106 13.0609 18.8233 12.7863 18.7459 12.1802C18.6725 11.605 19.3416 11.3192 19.8213 11.0701C20.5805 10.6759 21.3507 10.2876 22.1523 9.9908C22.7146 9.78277 23.0146 9.55871 22.9428 8.89824C22.8686 8.21471 22.3353 8.1056 21.9484 8.22174C21.065 8.48687 20.244 8.94634 19.3824 9.28967C18.2963 9.72216 17.1515 10.033 16.1106 10.55C14.8522 11.1749 13.2562 11.1987 12.3208 12.3582C11.3113 13.6091 10.047 13.6689 8.6041 13.5872C6.18144 13.4499 3.75164 13.4253 1.32423 13.387C0.692074 13.3772 0.239686 13.2306 0.243258 12.5333C0.247623 11.675 0.935729 11.7255 1.49844 11.7384C4.31911 11.8029 7.139 11.9014 9.95968 11.9714C10.1037 11.9749 10.2803 11.8572 10.3938 11.7481C11.7212 10.4694 13.301 9.70183 15.1022 9.25643C16.0022 9.03393 16.8209 8.50095 17.688 8.13532C18.2689 7.89053 18.8598 7.65513 19.4662 7.48503C20.0424 7.32353 20.1729 6.88361 20.3321 6.42101C20.74 5.23421 21.9432 4.58625 23.1877 4.68401C24.7893 4.80993 26.4012 4.8068 28.0092 4.85177C28.3195 4.86037 28.631 4.83574 28.9417 4.82596C29.0663 4.82205 29.2346 5.03321 29.2981 4.80993C29.3258 4.71217 29.1846 4.54637 29.0889 4.43844C27.9901 3.19572 28.1179 2.06171 28.9326 0.858478C29.4465 0.0994717 31.3263 -0.0522515 32.1215 0.400572C32.9279 0.85926 33.8382 1.13729 34.6894 1.52442C35.5279 1.90568 36.3704 2.28655 37.1712 2.73625C37.9387 3.16717 38.8069 3.34236 39.5756 3.73262C40.2042 4.0517 40.9336 4.31644 41.3427 4.91512C42.1895 6.15354 43.4364 6.08471 44.7126 6.09449C46.5932 6.10896 48.473 6.19303 50.3535 6.24387C50.6083 6.25091 50.8639 6.238 51.1186 6.23292C51.7671 6.22041 52.0881 6.64547 51.981 7.16281C51.8738 7.68015 51.3849 7.9398 50.7893 7.92064C48.6075 7.85104 46.4253 7.76814 44.2427 7.75211C42.834 7.74194 41.5919 7.64848 40.5895 6.37369C39.9431 5.55173 38.8482 5.10868 37.7208 4.87288C37.1097 4.74502 36.574 4.28985 35.9871 4.01886C34.8612 3.49916 33.7227 3.00646 32.5906 2.50084C31.9945 2.23454 31.4771 1.81066 30.7556 1.80675C30.304 1.8044 30.0846 2.01986 30.0028 2.35498C29.8608 2.93568 30.2644 3.26884 30.7171 3.51559C31.4572 3.91875 32.1818 4.37627 32.968 4.66407C34.3997 5.18806 34.0771 6.60949 34.6553 7.55424C35.2105 8.46145 35.8763 9.35185 36.9708 9.80584C37.5415 10.0428 38.1192 10.1554 38.7069 10.2958C39.1169 10.394 39.3117 10.862 39.1617 11.2191C38.9526 11.7172 38.4839 11.9761 37.8974 11.8584C36.1859 11.5143 34.7878 10.6665 33.7533 9.27442C33.2715 8.62647 32.9505 7.90539 32.7596 7.11119C32.5767 6.3514 31.8664 6.58837 31.356 6.56491C29.5874 6.48397 27.8167 6.4476 26.0464 6.40341C24.927 6.37565 23.8071 6.36274 22.6873 6.34945C22.6412 6.34906 22.594 6.41632 22.5472 6.45229C22.6087 6.50586 22.6623 6.57586 22.7333 6.61066C23.1182 6.79953 23.7023 6.87931 23.8627 7.18041C24.754 8.85562 26.302 7.89992 27.533 8.13415C28.5746 8.33241 29.6707 8.0794 30.7167 8.37581C31.1132 8.48804 31.0933 8.90528 31.0425 9.10627C30.9259 9.56887 30.5652 9.86997 30.0223 9.75188H30.0207Z" fill="#DC2626"/>
</svg>
