<svg width="15" height="15" viewBox="0 0 15 15" fill="none" xmlns="http://www.w3.org/2000/svg">
<path d="M12.375 2.5625C11.0938 1.25 9.34375 0.5 7.46875 0.5C3.65625 0.5 0.53125 3.625 0.53125 7.4375C0.53125 8.6875 0.875 9.875 1.46875 10.9062L0.5 14.5L4.15625 13.5625C5.1875 14.0938 6.3125 14.4062 7.46875 14.4062C11.3125 14.4062 14.5 11.2812 14.5 7.46875C14.5 5.59375 13.6875 3.875 12.375 2.5625ZM7.46875 13.2188C6.4375 13.2188 5.4375 12.9375 4.53125 12.4062L4.34375 12.2812L2.15625 12.875L2.75 10.75L2.59375 10.5312C2.03125 9.59375 1.71875 8.53125 1.71875 7.4375C1.71875 4.28125 4.3125 1.6875 7.5 1.6875C9.03125 1.6875 10.4688 2.28125 11.5625 3.375C12.6562 4.46875 13.3125 5.90625 13.3125 7.46875C13.3125 10.625 10.6562 13.2188 7.46875 13.2188ZM10.6562 8.90625C10.4688 8.8125 9.625 8.40625 9.46875 8.34375C9.3125 8.28125 9.1875 8.25 9.0625 8.4375C8.96875 8.59375 8.625 9 8.53125 9.125C8.40625 9.21875 8.3125 9.25 8.15625 9.15625C7.125 8.65625 6.46875 8.25 5.78125 7.09375C5.59375 6.78125 5.96875 6.8125 6.28125 6.15625C6.34375 6.03125 6.3125 5.9375 6.28125 5.84375C6.25 5.75 5.875 4.90625 5.75 4.5625C5.59375 4.21875 5.46875 4.25 5.34375 4.25C5.25 4.25 5.125 4.25 5.03125 4.25C4.90625 4.25 4.71875 4.28125 4.5625 4.46875C4.40625 4.65625 3.96875 5.0625 3.96875 5.90625C3.96875 6.78125 4.5625 7.59375 4.65625 7.71875C4.75 7.8125 5.875 9.5625 7.625 10.3125C8.71875 10.8125 9.15625 10.8438 9.71875 10.75C10.0312 10.7188 10.7188 10.3438 10.875 9.9375C11.0312 9.53125 11.0312 9.1875 10.9688 9.125C10.9375 9.03125 10.8125 9 10.6562 8.90625Z" fill="white"/>
</svg>
