<svg width="24" height="24" viewBox="0 0 24 24" fill="none" xmlns="http://www.w3.org/2000/svg">
<path d="M14.9749 3.01903L15.9349 1.28703C15.9472 1.26483 15.9549 1.24044 15.9578 1.21524C15.9606 1.19003 15.9585 1.16452 15.9515 1.14014C15.9445 1.11577 15.9327 1.09301 15.9169 1.07317C15.9011 1.05334 15.8816 1.03681 15.8594 1.02453C15.8372 1.01225 15.8128 1.00446 15.7876 1.00161C15.7624 0.998761 15.7369 1.0009 15.7125 1.00791C15.6881 1.01492 15.6654 1.02667 15.6455 1.04247C15.6257 1.05828 15.6092 1.07783 15.5969 1.10003L14.6269 2.85003C13.7988 2.48698 12.9045 2.29954 12.0004 2.29954C11.0962 2.29954 10.2019 2.48698 9.37388 2.85003L8.40388 1.10003C8.37908 1.05494 8.33739 1.02155 8.28797 1.00721C8.23856 0.992859 8.18547 0.99873 8.14038 1.02353C8.09529 1.04833 8.0619 1.09002 8.04756 1.13943C8.03321 1.18885 8.03908 1.24194 8.06388 1.28703L9.02388 3.01903C8.11047 3.46952 7.33874 4.16283 6.79333 5.02294C6.24791 5.88304 5.94987 6.87673 5.93188 7.89503H18.0689C18.0507 6.87652 17.7524 5.88269 17.2066 5.02256C16.6608 4.16243 15.8887 3.46924 14.9749 3.01903ZM9.19988 5.67403C9.09956 5.67403 9.0015 5.64427 8.9181 5.58851C8.83471 5.53276 8.76972 5.45352 8.73138 5.36082C8.69303 5.26812 8.68305 5.16612 8.7027 5.06775C8.72234 4.96937 8.77073 4.87904 8.84173 4.80817C8.91274 4.73731 9.00317 4.6891 9.10158 4.66965C9.2 4.6502 9.30197 4.66038 9.3946 4.69891C9.48722 4.73744 9.56633 4.80258 9.62192 4.88608C9.67751 4.96959 9.70708 5.06771 9.70688 5.16803C9.70662 5.30232 9.65308 5.43102 9.55803 5.52589C9.46298 5.62075 9.33417 5.67403 9.19988 5.67403ZM14.8019 5.67403C14.7016 5.67403 14.6035 5.64427 14.5201 5.58851C14.4367 5.53276 14.3717 5.45352 14.3334 5.36082C14.295 5.26812 14.2851 5.16612 14.3047 5.06775C14.3243 4.96937 14.3727 4.87904 14.4437 4.80817C14.5147 4.73731 14.6052 4.6891 14.7036 4.66965C14.802 4.6502 14.904 4.66038 14.9966 4.69891C15.0892 4.73744 15.1683 4.80258 15.2239 4.88608C15.2795 4.96959 15.3091 5.06771 15.3089 5.16803C15.3086 5.30232 15.2551 5.43102 15.16 5.52589C15.065 5.62075 14.9362 5.67403 14.8019 5.67403ZM5.92988 17.171C5.92962 17.3641 5.96747 17.5553 6.04126 17.7337C6.11505 17.9121 6.22334 18.0742 6.35991 18.2107C6.49647 18.3472 6.65864 18.4554 6.8371 18.529C7.01556 18.6027 7.20681 18.6404 7.39988 18.64H8.37288V21.64C8.37288 22.0009 8.51622 22.3469 8.77136 22.602C9.02651 22.8572 9.37255 23.0005 9.73338 23.0005C10.0942 23.0005 10.4403 22.8572 10.6954 22.602C10.9505 22.3469 11.0939 22.0009 11.0939 21.64V18.64H12.9079V21.64C12.9079 22.0007 13.0512 22.3466 13.3062 22.6017C13.5613 22.8567 13.9072 23 14.2679 23C14.6286 23 14.9745 22.8567 15.2295 22.6017C15.4846 22.3466 15.6279 22.0007 15.6279 21.64V18.64H16.6019C16.7947 18.6402 16.9857 18.6023 17.1638 18.5286C17.342 18.4548 17.5039 18.3467 17.6402 18.2104C17.7765 18.074 17.8847 17.9121 17.9584 17.734C18.0321 17.5558 18.07 17.3648 18.0699 17.172V8.37503H5.92988V17.171ZM4.06288 8.14103C3.70218 8.14156 3.35641 8.28515 3.10145 8.5403C2.84648 8.79545 2.70315 9.14132 2.70288 9.50203V15.171C2.70288 15.3496 2.73806 15.5265 2.8064 15.6915C2.87475 15.8565 2.97493 16.0064 3.10122 16.1327C3.2275 16.259 3.37743 16.3592 3.54243 16.4275C3.70743 16.4959 3.88428 16.531 4.06288 16.531C4.24148 16.531 4.41833 16.4959 4.58333 16.4275C4.74833 16.3592 4.89826 16.259 5.02455 16.1327C5.15083 16.0064 5.25101 15.8565 5.31936 15.6915C5.3877 15.5265 5.42288 15.3496 5.42288 15.171V9.50203C5.42235 9.1415 5.2789 8.79588 5.02396 8.54095C4.76903 8.28601 4.42341 8.14256 4.06288 8.14203V8.14103ZM19.9349 8.14103C19.5742 8.14156 19.2284 8.28515 18.9734 8.5403C18.7185 8.79545 18.5751 9.14132 18.5749 9.50203V15.171C18.5749 15.3496 18.6101 15.5265 18.6784 15.6915C18.7468 15.8565 18.8469 16.0064 18.9732 16.1327C19.0995 16.259 19.2494 16.3592 19.4144 16.4275C19.5794 16.4959 19.7563 16.531 19.9349 16.531C20.1135 16.531 20.2903 16.4959 20.4553 16.4275C20.6203 16.3592 20.7703 16.259 20.8965 16.1327C21.0228 16.0064 21.123 15.8565 21.1914 15.6915C21.2597 15.5265 21.2949 15.3496 21.2949 15.171V9.50203C21.2944 9.1415 21.1509 8.79588 20.896 8.54095C20.641 8.28601 20.2954 8.14256 19.9349 8.14203V8.14103Z" fill="#A5C736"/>
</svg>
