<svg width="16" height="19" viewBox="0 0 16 19" fill="none" xmlns="http://www.w3.org/2000/svg">
<path d="M12.6371 17.28C11.6571 18.23 10.5871 18.08 9.55708 17.63C8.46708 17.17 7.46708 17.15 6.31708 17.63C4.87708 18.25 4.11708 18.07 3.25708 17.28C-1.62292 12.25 -0.902922 4.59 4.63708 4.31C5.98708 4.38 6.92708 5.05 7.71708 5.11C8.89708 4.87 10.0271 4.18 11.2871 4.27C12.7971 4.39 13.9371 4.99 14.6871 6.07C11.5671 7.94 12.3071 12.05 15.1671 13.2C14.5971 14.7 13.8571 16.19 12.6271 17.29L12.6371 17.28ZM7.61708 4.25C7.46708 2.02 9.27708 0.18 11.3571 0C11.6471 2.58 9.01708 4.5 7.61708 4.25Z" fill="#101828"/>
</svg>
