<svg width="24" height="24" viewBox="0 0 24 24" fill="none" xmlns="http://www.w3.org/2000/svg">
<g clip-path="url(#clip0_3263_103891)">
<path d="M11.9802 0.00321952C11.9802 0.00321952 19.0414 -0.312423 22.7851 6.75759H11.3793C11.3793 6.75759 9.22683 6.68848 7.38811 9.28963C6.85992 10.3814 6.29217 11.506 6.9293 13.7224C6.01148 12.1736 2.05664 5.31404 2.05664 5.31404C2.05664 5.31404 4.84627 0.282721 11.9802 0.00321952Z" fill="#EF3F36"/>
<path d="M22.4187 17.9513C22.4187 17.9513 19.1604 24.2025 11.145 23.8934C12.1354 22.1867 16.8495 14.0546 16.8495 14.0546C16.8495 14.0546 17.9885 12.2328 16.6449 9.34561C15.9614 8.34265 15.2649 7.29366 13.0201 6.73456C14.8259 6.71822 22.7654 6.73456 22.7654 6.73456C22.7654 6.73456 25.7397 11.6574 22.4187 17.9513Z" fill="#FCD900"/>
<path d="M1.59107 18.0007C1.59107 18.0007 -2.21527 12.0651 2.0631 5.3042C3.0502 7.01091 7.76432 15.1431 7.76432 15.1431C7.76432 15.1431 8.78113 17.0372 11.9602 17.3199C13.1718 17.2312 14.4329 17.1555 16.0439 15.5015C15.1558 17.0668 11.1711 23.9066 11.1711 23.9066C11.1711 23.9066 5.4007 24.0119 1.59107 18.0007Z" fill="#61BC5B"/>
<path d="M11.1416 23.9527L12.7459 17.2839C12.7459 17.2839 14.5088 17.1457 15.9878 15.5311C15.07 17.1392 11.1416 23.9527 11.1416 23.9527Z" fill="#5AB055"/>
<path d="M6.60571 12.0519C6.60571 9.11215 8.99915 6.72803 11.9504 6.72803C14.9017 6.72803 17.2951 9.11215 17.2951 12.0519C17.2951 14.9918 14.9017 17.3758 11.9504 17.3758C8.99915 17.3725 6.60571 14.9918 6.60571 12.0519Z" fill="white"/>
<path d="M7.50049 12.052C7.50049 9.60547 9.49118 7.61926 11.9506 7.61926C14.4067 7.61926 16.4006 9.6022 16.4006 12.052C16.4006 14.4986 14.4101 16.4848 11.9506 16.4848C9.49446 16.4848 7.50049 14.4986 7.50049 12.052Z" fill="url(#paint0_linear_3263_103891)"/>
<path d="M22.7621 6.73792L16.1563 8.66819C16.1563 8.66819 15.1593 7.21138 13.0168 6.73792C14.8754 6.72802 22.7621 6.73792 22.7621 6.73792Z" fill="#EACA05"/>
<path d="M6.80058 13.4791C5.87283 11.8777 2.05664 5.31409 2.05664 5.31409L6.94908 10.1348C6.94908 10.1348 6.44723 11.1641 6.63548 12.6373L6.80058 13.4791Z" fill="#DF3A32"/>
</g>
<defs>
<linearGradient id="paint0_linear_3263_103891" x1="11.9504" y1="7.68185" x2="11.9504" y2="16.2179" gradientUnits="userSpaceOnUse">
<stop stop-color="#86BBE5"/>
<stop offset="1" stop-color="#1072BA"/>
</linearGradient>
<clipPath id="clip0_3263_103891">
<rect width="24" height="24" fill="white"/>
</clipPath>
</defs>
</svg>
