<svg width="17" height="14" viewBox="0 0 17 14" fill="none" xmlns="http://www.w3.org/2000/svg">
<path d="M8.01858 0C3.58108 0 0.0185804 2.9375 0.0185804 6.5C0.0185804 8 0.61233 9.375 1.64358 10.4688C1.20608 11.6875 0.23733 12.75 0.20608 12.75C-0.0126696 12.9688 -0.0439196 13.2812 0.0498304 13.5625C0.17483 13.8438 0.45608 14 0.76858 14C2.67483 14 4.20608 13.2188 5.11233 12.5625C6.01858 12.8438 6.98733 13 8.01858 13C12.4248 13 16.0186 10.0938 16.0186 6.5C16.0186 2.9375 12.4248 0 8.01858 0ZM8.01858 11.5C7.17483 11.5 6.33108 11.375 5.54983 11.125L4.83108 10.9062L4.23733 11.3438C3.79983 11.6562 3.17483 12 2.42483 12.25C2.67483 11.875 2.89358 11.4375 3.04983 11L3.39358 10.125L2.73733 9.4375C2.17483 8.84375 1.51858 7.84375 1.51858 6.5C1.51858 3.75 4.42483 1.5 8.01858 1.5C11.5811 1.5 14.5186 3.75 14.5186 6.5C14.5186 9.28125 11.5811 11.5 8.01858 11.5Z" fill="#787878"/>
</svg>
