<svg width="24" height="25" viewBox="0 0 24 25" fill="none" xmlns="http://www.w3.org/2000/svg">
<path d="M12 23.4375C18.4203 23.4375 23.625 18.2328 23.625 11.8125C23.625 5.39219 18.4203 0.1875 12 0.1875C5.57969 0.1875 0.375 5.39219 0.375 11.8125C0.375 18.2328 5.57969 23.4375 12 23.4375Z" fill="url(#paint0_linear_3263_103743)"/>
<path d="M12 22.5656C17.9387 22.5656 22.7531 17.7512 22.7531 11.8125C22.7531 5.87366 17.9387 1.05933 12 1.05933C6.06116 1.05933 1.24683 5.87366 1.24683 11.8125C1.24683 17.7512 6.06116 22.5656 12 22.5656Z" fill="url(#paint1_radial_3263_103743)"/>
<path d="M12.0183 3.67499C11.9456 3.67499 11.8821 3.62052 11.8821 3.54786V1.64971C11.8821 1.57705 11.9456 1.52258 12.0183 1.52258C12.091 1.52258 12.1545 1.57705 12.1545 1.64971V3.54786C12.1454 3.62052 12.091 3.67499 12.0183 3.67499Z" fill="#F3F3F3"/>
<path d="M12.0181 3.68414C11.9364 3.68414 11.8728 3.62058 11.8728 3.54792V1.64977C11.8728 1.57711 11.9364 1.51355 12.0181 1.51355C12.0999 1.51355 12.1634 1.57711 12.1634 1.64977V3.54792C12.1634 3.62058 12.0908 3.68414 12.0181 3.68414ZM12.0181 1.53164C11.9546 1.53164 11.891 1.58621 11.891 1.64977V3.54792C11.891 3.61149 11.9455 3.66605 12.0181 3.66605C12.0817 3.66605 12.1452 3.61149 12.1452 3.54792V1.64977C12.1362 1.58621 12.0817 1.53164 12.0181 1.53164Z" fill="white"/>
<path d="M12.9264 2.65779C12.8538 2.6487 12.7993 2.59423 12.7993 2.52157L12.8629 1.67688C12.8719 1.60432 12.9355 1.54976 13.0082 1.55885C13.0808 1.56795 13.1353 1.62251 13.1353 1.69517L13.0718 2.53976C13.0627 2.61242 12.9991 2.66679 12.9264 2.65779Z" fill="#F3F3F3"/>
<path d="M12.9265 2.66693C12.8448 2.65783 12.7903 2.59427 12.7903 2.52162L12.8538 1.67693C12.8629 1.60437 12.9265 1.5408 13.0083 1.5498C13.0899 1.5589 13.1445 1.62255 13.1445 1.69512L13.0809 2.5398C13.0718 2.62155 13.0083 2.67602 12.9265 2.66693ZM13.0083 1.56799C12.9447 1.56799 12.881 1.61346 12.881 1.67702L12.8175 2.52171C12.8175 2.58518 12.8629 2.63974 12.9356 2.64874C12.9992 2.64874 13.0627 2.60337 13.0627 2.5398L13.1263 1.69512C13.1263 1.63155 13.0719 1.57708 13.0083 1.56799Z" fill="white"/>
<path d="M13.6077 3.83852C13.535 3.82033 13.4896 3.75677 13.4987 3.68411L13.8711 1.82224C13.8893 1.74968 13.9528 1.70421 14.0255 1.72239C14.0982 1.74058 14.1435 1.80414 14.1344 1.8768L13.7621 3.73868C13.753 3.80215 13.6803 3.84761 13.6077 3.83852H13.6077Z" fill="#F3F3F3"/>
<path d="M13.6076 3.84755C13.5257 3.82937 13.4803 3.75671 13.4894 3.68405L13.8618 1.82218C13.88 1.74962 13.9526 1.69505 14.0343 1.71324C14.1161 1.73143 14.1615 1.80409 14.1524 1.87674L13.7801 3.73862C13.7619 3.81118 13.6892 3.85665 13.6076 3.84755ZM14.0343 1.73143C13.9707 1.72234 13.9072 1.75862 13.889 1.82227L13.5167 3.68415C13.5076 3.74762 13.5439 3.81118 13.6166 3.82946C13.6801 3.83846 13.7437 3.80209 13.7619 3.73852L14.1342 1.87674C14.1433 1.80409 14.098 1.74962 14.0343 1.73143Z" fill="white"/>
<path d="M14.6974 3.02112C14.6801 3.01695 14.6638 3.00941 14.6494 2.99893C14.635 2.98846 14.6229 2.97525 14.6136 2.96006C14.6043 2.94488 14.5981 2.92801 14.5954 2.91044C14.5926 2.89286 14.5934 2.87491 14.5976 2.85762L14.8246 2.0403C14.8427 1.96765 14.9154 1.93127 14.988 1.94946C15.0607 1.96765 15.1062 2.0403 15.088 2.11296L14.8609 2.93037C14.8427 3.00293 14.7701 3.0393 14.6974 3.02112Z" fill="#F3F3F3"/>
<path d="M14.6973 3.03026C14.6247 3.01207 14.5702 2.93032 14.5975 2.85776L14.8246 2.04026C14.8426 1.96769 14.9244 1.92222 14.9971 1.94041C15.0697 1.9586 15.1242 2.04035 15.097 2.11291L14.8699 2.93041C14.8517 3.00297 14.7791 3.04844 14.6974 3.03026H14.6973ZM14.9971 1.96769C14.9335 1.94951 14.8608 1.98588 14.8426 2.04944L14.6157 2.86676C14.5975 2.93032 14.6338 2.99398 14.7064 3.01207C14.77 3.03026 14.8426 2.99397 14.8608 2.93041L15.0879 2.11291C15.097 2.04944 15.0607 1.98588 14.9971 1.9676V1.96769Z" fill="white"/>
<path d="M15.1423 4.30167C15.0697 4.27439 15.0425 4.19264 15.0697 4.12908L15.7962 2.37623C15.8234 2.31267 15.9053 2.2763 15.9687 2.31267C16.0415 2.33986 16.0688 2.4217 16.0415 2.48517L15.3149 4.23801C15.2877 4.30167 15.2059 4.33795 15.1424 4.30167H15.1423Z" fill="#F3F3F3"/>
<path d="M15.1424 4.31078C15.1075 4.29748 15.0793 4.27089 15.0639 4.23683C15.0486 4.20277 15.0474 4.16403 15.0606 4.12909L15.7872 2.37625C15.8145 2.30359 15.8962 2.27631 15.978 2.30359C16.0129 2.31689 16.0411 2.34348 16.0564 2.37754C16.0717 2.4116 16.0729 2.45034 16.0597 2.48528L15.3331 4.23812C15.2968 4.31078 15.215 4.34706 15.1424 4.31078ZM15.9689 2.32178C15.9053 2.29459 15.8326 2.32178 15.8054 2.38534L15.0788 4.13819C15.0516 4.20175 15.0879 4.26531 15.1515 4.29259C15.215 4.31978 15.2877 4.29259 15.315 4.22903L16.0415 2.47619C16.0597 2.42162 16.0324 2.34897 15.9689 2.32178Z" fill="white"/>
<path d="M16.3686 3.72047C16.305 3.68409 16.2777 3.61143 16.305 3.54787L16.6864 2.79412C16.7227 2.73047 16.7954 2.70318 16.8681 2.73956C16.9317 2.77593 16.9589 2.84859 16.9317 2.91206L16.5501 3.6659C16.5138 3.72947 16.4412 3.75684 16.3685 3.72047H16.3686Z" fill="#F3F3F3"/>
<path d="M16.3685 3.72963C16.2957 3.69326 16.2685 3.61151 16.3048 3.53885L16.6863 2.7851C16.7226 2.71235 16.8044 2.68516 16.877 2.72144C16.9496 2.75782 16.9769 2.83957 16.9405 2.91223L16.5592 3.66598C16.5228 3.73863 16.441 3.76591 16.3684 3.72954L16.3685 3.72963ZM16.868 2.73963C16.8043 2.71244 16.7317 2.73054 16.7045 2.7941L16.323 3.54794C16.2958 3.60241 16.323 3.67507 16.3775 3.71144C16.441 3.73863 16.5137 3.72054 16.541 3.65698L16.9224 2.90313C16.9496 2.84866 16.9224 2.77601 16.868 2.73963Z" fill="white"/>
<path d="M16.5501 5.06456C16.4865 5.01918 16.4683 4.93743 16.5137 4.88296L17.5673 3.31171C17.6036 3.24815 17.6854 3.23906 17.7489 3.27543C17.8125 3.32081 17.8306 3.40256 17.7852 3.45702L16.7317 5.02827C16.6954 5.09184 16.6137 5.11002 16.5501 5.06456Z" fill="#F3F3F3"/>
<path d="M16.5502 5.07366C16.4867 5.02829 16.4685 4.93745 16.5049 4.87388L17.5583 3.30263C17.6037 3.23907 17.6855 3.22088 17.7581 3.26635C17.8217 3.31173 17.8399 3.40257 17.8036 3.46613L16.75 5.03738C16.7047 5.10095 16.6138 5.11904 16.5502 5.07366ZM17.749 3.28454C17.6947 3.24816 17.6128 3.25726 17.5765 3.31173L16.523 4.88298C16.4867 4.93735 16.5048 5.0101 16.5593 5.04638C16.6138 5.08276 16.6956 5.07366 16.7318 5.0192L17.7854 3.45704C17.8217 3.40257 17.8036 3.32082 17.749 3.28454Z" fill="white"/>
<path d="M17.8761 4.72854C17.8218 4.68307 17.8036 4.60132 17.849 4.54685L18.3757 3.88385C18.4211 3.82948 18.5029 3.82029 18.5573 3.86576C18.6119 3.91114 18.63 3.99289 18.5845 4.04735L18.0578 4.71035C18.0125 4.76482 17.9306 4.77392 17.8761 4.72854Z" fill="#F3F3F3"/>
<path d="M17.8671 4.73772C17.8036 4.69225 17.7945 4.60141 17.8399 4.53784L18.3666 3.87494C18.412 3.81128 18.5029 3.80219 18.5664 3.85675C18.63 3.90212 18.6391 3.99297 18.5936 4.05653L18.0669 4.71953C18.0215 4.78309 17.9307 4.79219 17.8671 4.73772ZM18.5482 3.87484C18.4939 3.82947 18.4211 3.83856 18.3757 3.89303L17.8489 4.55603C17.8127 4.6105 17.8218 4.68316 17.8761 4.72853C17.9307 4.774 18.0034 4.76491 18.0487 4.71044L18.5755 4.04744C18.6119 3.99297 18.6027 3.91122 18.5483 3.87494L18.5482 3.87484Z" fill="white"/>
<path d="M17.7852 6.09086C17.7308 6.03639 17.7308 5.95464 17.7852 5.90917L19.1293 4.57417C19.1839 4.5197 19.2655 4.5287 19.311 4.57417C19.3564 4.61955 19.3655 4.71039 19.311 4.75577L17.976 6.09086C17.9215 6.14533 17.8397 6.14533 17.7852 6.09086Z" fill="#F3F3F3"/>
<path d="M17.7762 6.09996C17.75 6.07331 17.7354 6.03744 17.7354 6.00007C17.7354 5.96271 17.75 5.92683 17.7762 5.90018L19.1203 4.56509C19.147 4.53887 19.1829 4.52417 19.2203 4.52417C19.2576 4.52417 19.2935 4.53887 19.3202 4.56509C19.3464 4.59174 19.3611 4.62761 19.3611 4.66498C19.3611 4.70235 19.3464 4.73822 19.3202 4.76487L17.976 6.09987C17.9494 6.12606 17.9135 6.14074 17.8761 6.14074C17.8387 6.14074 17.8029 6.12616 17.7762 6.09996ZM19.3111 4.57418C19.2657 4.52871 19.184 4.52871 19.1386 4.57418L17.7944 5.90918C17.7489 5.95465 17.7489 6.0364 17.7944 6.08178C17.8398 6.12725 17.9215 6.12725 17.9669 6.08178L19.3111 4.74678C19.3565 4.70131 19.3565 4.62865 19.3111 4.57418Z" fill="white"/>
<path d="M19.1477 6.01821C19.1023 5.96374 19.1023 5.88199 19.1568 5.83652L19.8016 5.29165C19.8561 5.24627 19.9378 5.25527 19.9833 5.30983C20.0287 5.3643 20.0287 5.44605 19.9742 5.49143L19.3294 6.0364C19.2748 6.08177 19.1931 6.07268 19.1477 6.01821Z" fill="#F3F3F3"/>
<path d="M19.1384 6.02733C19.0839 5.96377 19.093 5.87293 19.1475 5.82755L19.7923 5.28258C19.8468 5.22811 19.9376 5.23721 19.9921 5.30077C20.0466 5.36433 20.0376 5.45518 19.9831 5.50055L19.3382 6.04552C19.2838 6.0999 19.1929 6.0909 19.1385 6.02733H19.1384ZM19.974 5.30986C19.9285 5.2554 19.8559 5.2554 19.8015 5.29168L19.1566 5.83665C19.1112 5.88202 19.1021 5.95468 19.1475 6.00915C19.1929 6.06361 19.2656 6.06361 19.32 6.02733L19.9649 5.48236C20.0194 5.43699 20.0194 5.36433 19.974 5.30986Z" fill="white"/>
<path d="M18.7842 7.32598C18.7388 7.26242 18.757 7.18067 18.8206 7.14429L20.4009 6.09082C20.4644 6.05445 20.5462 6.07264 20.5824 6.1272C20.6279 6.19076 20.6097 6.27251 20.5462 6.30879L18.9659 7.36226C18.9113 7.39864 18.8296 7.38045 18.7842 7.32598Z" fill="#F3F3F3"/>
<path d="M18.7752 7.32604C18.7298 7.26248 18.748 7.17163 18.8116 7.12626L20.3918 6.0727C20.4554 6.02732 20.5462 6.04551 20.5916 6.11817C20.6371 6.18173 20.6188 6.27257 20.5553 6.31785L18.9751 7.37151C18.9114 7.41698 18.8207 7.3987 18.7752 7.32604ZM20.5734 6.13635C20.5371 6.08179 20.4645 6.0636 20.41 6.09998L18.8297 7.15345C18.7753 7.18982 18.757 7.26248 18.8025 7.32604C18.8388 7.38051 18.9114 7.3987 18.966 7.36242L20.5462 6.30885C20.6007 6.26348 20.6098 6.19073 20.5734 6.13635Z" fill="white"/>
<path d="M20.1377 7.51674C20.1013 7.45308 20.1195 7.37142 20.1831 7.33505L20.9187 6.9173C20.9823 6.88092 21.064 6.9082 21.1003 6.97167C21.1367 7.03533 21.1185 7.11699 21.0549 7.15336L20.3193 7.5712C20.2557 7.60749 20.174 7.5803 20.1376 7.51664L20.1377 7.51674Z" fill="#F3F3F3"/>
<path d="M20.1284 7.52574C20.092 7.45308 20.1102 7.37133 20.1738 7.33505L20.9094 6.9173C20.973 6.88092 21.0638 6.9082 21.1001 6.97167C21.1365 7.04442 21.1183 7.12617 21.0547 7.16245L20.3191 7.5803C20.2555 7.61658 20.1647 7.5893 20.1284 7.52574ZM21.091 6.98086C21.0547 6.9173 20.9821 6.89911 20.9276 6.93539L20.192 7.35324C20.1375 7.38952 20.1193 7.46217 20.1465 7.51664C20.1829 7.5802 20.2555 7.59839 20.31 7.56211L21.0457 7.14427C21.1001 7.11708 21.1183 7.04442 21.091 6.98086Z" fill="white"/>
<path d="M19.5291 8.72465C19.502 8.65199 19.5291 8.57933 19.6018 8.55215L21.3546 7.82558C21.4182 7.7983 21.5 7.83458 21.5271 7.89815C21.5544 7.9708 21.5271 8.04346 21.4545 8.07065L19.7017 8.79721C19.6381 8.82449 19.5564 8.79721 19.5291 8.72465Z" fill="#F3F3F3"/>
<path d="M19.5201 8.73369C19.4929 8.66113 19.5201 8.57938 19.5928 8.543L21.3456 7.81644C21.3805 7.80328 21.4193 7.80449 21.4533 7.81981C21.4873 7.83513 21.5139 7.86331 21.5272 7.89819C21.5545 7.97085 21.5272 8.0526 21.4545 8.08888L19.7018 8.81544C19.6669 8.82864 19.6281 8.82745 19.5941 8.81215C19.56 8.79684 19.5334 8.76857 19.5201 8.73369ZM21.5091 7.90728C21.4818 7.84372 21.4092 7.81644 21.3547 7.83463L19.6019 8.56119C19.5383 8.58838 19.511 8.66113 19.5383 8.72469C19.5655 8.78825 19.6381 8.81553 19.6927 8.79735L21.4454 8.07078C21.5091 8.0436 21.5364 7.97085 21.5091 7.90728Z" fill="white"/>
<path d="M20.8096 9.17881C20.7824 9.10606 20.8187 9.0335 20.8913 9.00622L21.6905 8.74278C21.7541 8.7156 21.8358 8.76097 21.854 8.82453C21.8812 8.89719 21.8449 8.96984 21.7723 8.99713L20.9731 9.26056C20.9095 9.28775 20.8368 9.25147 20.8096 9.17872V9.17881Z" fill="#F3F3F3"/>
<path d="M20.8004 9.18774C20.7732 9.11508 20.8095 9.03333 20.8914 9.00614L21.6905 8.74271C21.7631 8.71552 21.8449 8.7609 21.8722 8.83365C21.8994 8.90621 21.8631 8.98796 21.7812 9.01524L20.9821 9.27868C20.9095 9.29677 20.8277 9.26039 20.8004 9.18774ZM21.854 8.84274C21.8358 8.77908 21.7631 8.74271 21.6996 8.7609L20.9004 9.02433C20.8368 9.04243 20.8095 9.11508 20.8277 9.17874C20.8459 9.2423 20.9185 9.27858 20.9821 9.26039L21.7813 8.99705C21.8449 8.96986 21.8722 8.9063 21.854 8.84274Z" fill="white"/>
<path d="M19.9923 10.2595C19.9741 10.1868 20.0195 10.1142 20.0921 10.1051L21.954 9.74181C22.0266 9.72362 22.0902 9.77809 22.1083 9.85075C22.1265 9.9234 22.0811 9.99606 22.0085 10.0052L20.1466 10.3684C20.074 10.3775 20.0013 10.3322 19.9922 10.2595H19.9923Z" fill="#F3F3F3"/>
<path d="M19.9742 10.2596C19.956 10.1778 20.0105 10.1052 20.0832 10.087L21.945 9.72372C22.0177 9.70553 22.0904 9.76009 22.1085 9.84184C22.1266 9.9235 22.0722 9.99616 21.9995 10.0143L20.1376 10.3776C20.0651 10.3958 19.9923 10.3413 19.9742 10.2595V10.2596ZM22.0904 9.85084C22.0813 9.78728 22.0177 9.74191 21.9541 9.751L20.0923 10.1143C20.0287 10.1234 19.9833 10.1959 20.0014 10.2596C20.0105 10.3232 20.0741 10.3685 20.1377 10.3594L21.9995 9.99616C22.0631 9.97797 22.1085 9.91441 22.0904 9.85084Z" fill="white"/>
<path d="M21.1547 10.9589C21.1456 10.8862 21.191 10.8227 21.2637 10.8136L22.0992 10.7136C22.1718 10.7046 22.2355 10.7591 22.2445 10.8317C22.2536 10.9044 22.2082 10.968 22.1355 10.9771L21.2999 11.0769C21.2364 11.086 21.1638 11.0315 21.1547 10.9589Z" fill="#F3F3F3"/>
<path d="M21.1458 10.9588C21.1367 10.877 21.1911 10.8044 21.2638 10.7953L22.0993 10.6954C22.172 10.6864 22.2446 10.7408 22.2537 10.8226C22.2628 10.9043 22.2083 10.977 22.1357 10.9861L21.3001 11.0859C21.2275 11.095 21.1548 11.0405 21.1458 10.9588ZM22.2446 10.8317C22.2356 10.7681 22.1721 10.7135 22.1084 10.7226L21.2729 10.8226C21.2093 10.8317 21.1639 10.8952 21.173 10.9588C21.1821 11.0224 21.2456 11.0769 21.3092 11.0678L22.1448 10.9679C22.2083 10.9588 22.2536 10.8952 22.2446 10.8317Z" fill="white"/>
<path d="M20.1377 11.8398C20.1377 11.7672 20.1921 11.7036 20.2648 11.7036H22.163C22.2356 11.7036 22.2901 11.7672 22.2901 11.8398C22.2901 11.9125 22.2356 11.9761 22.163 11.9761H20.2648C20.1922 11.9761 20.1377 11.9125 20.1377 11.8398Z" fill="#F3F3F3"/>
<path d="M20.1284 11.8398C20.1284 11.758 20.192 11.6945 20.2646 11.6945H22.1628C22.2354 11.6945 22.299 11.758 22.299 11.8398C22.299 11.9215 22.2354 11.9851 22.1628 11.9851H20.2646C20.192 11.9851 20.1284 11.9215 20.1284 11.8398ZM22.2808 11.8489C22.2808 11.7853 22.2264 11.7217 22.1627 11.7217H20.2647C20.2012 11.7217 20.1466 11.7761 20.1466 11.8489C20.1466 11.9124 20.2012 11.976 20.2647 11.976H22.1629C22.2264 11.9669 22.2808 11.9124 22.2808 11.8489Z" fill="white"/>
<path d="M21.1456 12.757C21.1546 12.6844 21.2092 12.6299 21.2818 12.6299L22.1265 12.6934C22.1991 12.7025 22.2535 12.7661 22.2444 12.8388C22.2354 12.9114 22.1809 12.9659 22.1082 12.9659L21.2636 12.9023C21.2001 12.8932 21.1456 12.8297 21.1456 12.757Z" fill="#F3F3F3"/>
<path d="M21.1367 12.7571C21.1458 12.6753 21.2094 12.6208 21.282 12.6208L22.1267 12.6844C22.1993 12.6935 22.2628 12.7571 22.2538 12.8388C22.2448 12.9206 22.1811 12.975 22.1084 12.975L21.2638 12.9115C21.1912 12.9024 21.1367 12.8297 21.1367 12.7571ZM22.2448 12.8388C22.2538 12.7753 22.1993 12.7117 22.1357 12.7117L21.291 12.6481C21.2276 12.6481 21.173 12.6935 21.1639 12.7663C21.1549 12.8297 21.2094 12.8933 21.2729 12.8933L22.1176 12.9568C22.1811 12.9568 22.2357 12.9025 22.2448 12.8388Z" fill="white"/>
<path d="M19.9741 13.42C19.9922 13.3474 20.0558 13.3019 20.1285 13.3111L21.9902 13.6835C22.0629 13.7016 22.1084 13.7651 22.0902 13.8378C22.072 13.9105 22.0084 13.9559 21.9358 13.9468L20.0739 13.5745C20.0103 13.5654 19.965 13.4927 19.9741 13.42Z" fill="#F3F3F3"/>
<path d="M19.965 13.42C19.9832 13.3383 20.0559 13.2929 20.1285 13.3019L21.9903 13.6744C22.063 13.6925 22.1174 13.7651 22.0992 13.8469C22.0811 13.9286 22.0085 13.9741 21.9358 13.965L20.074 13.5926C20.0013 13.5744 19.9559 13.5018 19.965 13.4201V13.42ZM22.0811 13.8469C22.0902 13.7833 22.054 13.7198 21.9903 13.7016L20.1284 13.3292C20.065 13.3202 20.0013 13.3565 19.9831 13.4291C19.9741 13.4927 20.0104 13.5563 20.0741 13.5744L21.9358 13.9468C22.0085 13.9559 22.063 13.9104 22.0811 13.8469Z" fill="white"/>
<path d="M20.7916 14.5099C20.7957 14.4926 20.8033 14.4763 20.8137 14.4619C20.8242 14.4475 20.8374 14.4354 20.8526 14.4261C20.8678 14.4168 20.8846 14.4106 20.9022 14.4079C20.9197 14.4051 20.9377 14.4059 20.955 14.41L21.7724 14.637C21.845 14.6552 21.8813 14.7279 21.8632 14.8005C21.8591 14.8178 21.8515 14.8341 21.8411 14.8485C21.8306 14.8629 21.8174 14.8751 21.8022 14.8844C21.787 14.8937 21.7701 14.8999 21.7526 14.9026C21.735 14.9054 21.717 14.9046 21.6997 14.9004L20.8823 14.6734C20.8097 14.6552 20.7735 14.5825 20.7916 14.5099Z" fill="#F3F3F3"/>
<path d="M20.7823 14.5098C20.8005 14.4372 20.8822 14.3827 20.9549 14.41L21.7723 14.637C21.8449 14.6551 21.8904 14.7369 21.8722 14.8096C21.854 14.8822 21.7723 14.9367 21.6996 14.9095L20.8822 14.6824C20.8096 14.6642 20.7641 14.5916 20.7824 14.5099L20.7823 14.5098ZM21.8449 14.8096C21.8631 14.746 21.8267 14.6733 21.7632 14.6551L20.9458 14.4281C20.8822 14.4099 20.8186 14.4463 20.8005 14.5189C20.7824 14.5825 20.8186 14.6551 20.8822 14.6733L21.6996 14.9004C21.7632 14.9095 21.8267 14.8732 21.8449 14.8096Z" fill="white"/>
<path d="M19.5109 14.9458C19.5381 14.8732 19.6199 14.8459 19.6834 14.8732L21.4363 15.5997C21.4999 15.6269 21.5361 15.7088 21.509 15.7722C21.4817 15.845 21.3999 15.8722 21.3364 15.845L19.5835 15.1184C19.5109 15.0912 19.4836 15.0093 19.5109 14.9458Z" fill="#F3F3F3"/>
<path d="M19.5018 14.9367C19.5151 14.9018 19.5417 14.8736 19.5757 14.8583C19.6098 14.8429 19.6485 14.8417 19.6835 14.8549L21.4363 15.5815C21.509 15.6088 21.5362 15.6905 21.509 15.7723C21.4957 15.8072 21.4691 15.8354 21.435 15.8507C21.401 15.866 21.3622 15.8672 21.3273 15.854L19.5745 15.1275C19.5018 15.0911 19.4746 15.0093 19.5018 14.9367ZM21.4908 15.7632C21.518 15.6996 21.4908 15.627 21.4272 15.5997L19.6744 14.8731C19.6108 14.8459 19.5473 14.8822 19.52 14.9458C19.4928 15.0093 19.52 15.082 19.5835 15.1093L21.3364 15.8358C21.4 15.854 21.4726 15.8267 21.4908 15.7632Z" fill="white"/>
<path d="M20.1013 16.1719C20.1376 16.1083 20.2102 16.081 20.2738 16.1083L21.0276 16.4898C21.0912 16.517 21.1184 16.5987 21.0822 16.6714C21.0458 16.7349 20.9731 16.7623 20.9096 16.7349L20.1558 16.3536C20.0922 16.3172 20.0649 16.2354 20.1013 16.1719Z" fill="#F3F3F3"/>
<path d="M20.0922 16.1628C20.1285 16.0902 20.2103 16.063 20.283 16.0993L21.0367 16.4807C21.1094 16.5171 21.1366 16.5988 21.1003 16.6714C21.064 16.7441 20.9821 16.7713 20.9096 16.735L20.1558 16.3536C20.0831 16.3264 20.0559 16.2355 20.0922 16.1628ZM21.0731 16.6623C21.1003 16.5988 21.0821 16.5261 21.0185 16.4989L20.2648 16.1174C20.2102 16.0903 20.1376 16.1174 20.1013 16.1719C20.0741 16.2355 20.0922 16.3081 20.1557 16.3354L20.9095 16.7169C20.9731 16.7441 21.0458 16.726 21.0731 16.6623Z" fill="white"/>
<path d="M18.7662 16.3445C18.8116 16.281 18.8843 16.2628 18.9478 16.3082L20.5281 17.3617C20.5917 17.398 20.6008 17.4798 20.5645 17.5433C20.519 17.607 20.4463 17.6251 20.3828 17.5797L18.8025 16.5261C18.739 16.4807 18.7208 16.399 18.7662 16.3445Z" fill="#F3F3F3"/>
<path d="M18.757 16.3354C18.8024 16.2718 18.8933 16.2537 18.9568 16.29L20.5371 17.3435C20.6007 17.3889 20.6188 17.4706 20.5734 17.5433C20.528 17.6069 20.4372 17.625 20.3737 17.5887L18.7933 16.5352C18.7207 16.4898 18.7116 16.399 18.757 16.3354ZM20.5462 17.5342C20.5825 17.4798 20.5734 17.398 20.519 17.3617L18.9387 16.3081C18.8842 16.2718 18.8115 16.29 18.7752 16.3445C18.7389 16.399 18.748 16.4807 18.8023 16.517L20.3827 17.5706C20.4372 17.6069 20.5098 17.5887 20.5462 17.5343V17.5342Z" fill="white"/>
<path d="M19.1023 17.6614C19.1477 17.6068 19.2295 17.5887 19.2839 17.6342L19.9469 18.1518C20.0014 18.1972 20.0105 18.2789 19.9651 18.3335C19.9197 18.3879 19.838 18.4061 19.7834 18.3607L19.1204 17.843C19.0661 17.7976 19.0569 17.7159 19.1023 17.6614Z" fill="#F3F3F3"/>
<path d="M19.0931 17.6523C19.1385 17.5887 19.2293 17.5796 19.2929 17.6251L19.9559 18.1427C20.0194 18.1881 20.0285 18.2789 19.9831 18.3425C19.9377 18.4061 19.8468 18.4151 19.7834 18.3698L19.1203 17.8521C19.0567 17.8067 19.0477 17.7159 19.0931 17.6523ZM19.965 18.3335C20.0103 18.2789 20.0012 18.2063 19.9468 18.1609L19.2838 17.6432C19.2293 17.6069 19.1566 17.616 19.1113 17.6704C19.0658 17.7249 19.0749 17.7976 19.1294 17.843L19.7924 18.3607C19.8468 18.397 19.9195 18.3879 19.9649 18.3335H19.965Z" fill="white"/>
<path d="M17.7489 17.5705C17.8034 17.516 17.8852 17.516 17.9306 17.5705L19.2747 18.9055C19.3292 18.9601 19.3201 19.0418 19.2747 19.0872C19.2203 19.1417 19.1384 19.1417 19.0931 19.0872L17.7489 17.7522C17.7035 17.7067 17.7035 17.6159 17.7489 17.5705Z" fill="#F3F3F3"/>
<path d="M17.7488 17.5614C17.7755 17.5352 17.8114 17.5205 17.8488 17.5205C17.8862 17.5205 17.9221 17.5352 17.9487 17.5614L19.2928 18.8964C19.319 18.9231 19.3337 18.959 19.3337 18.9964C19.3337 19.0338 19.319 19.0696 19.2928 19.0963C19.2662 19.1225 19.2303 19.1372 19.1929 19.1372C19.1556 19.1372 19.1197 19.1225 19.093 19.0963L17.7488 17.7613C17.6853 17.7067 17.6853 17.616 17.7488 17.5614ZM19.2746 19.0781C19.3201 19.0327 19.3201 18.951 19.2746 18.9056L17.9305 17.5705C17.8852 17.5251 17.8034 17.5251 17.758 17.5705C17.7126 17.6159 17.7126 17.6976 17.758 17.743L19.1021 19.0781C19.1475 19.1327 19.2202 19.1327 19.2746 19.0781Z" fill="white"/>
<path d="M17.8307 18.9237C17.8852 18.8783 17.9669 18.8783 18.0124 18.9328L18.5664 19.5685C18.6117 19.6231 18.6027 19.7048 18.5481 19.7502C18.4938 19.7956 18.4119 19.7956 18.3666 19.7411L17.8125 19.1054C17.7671 19.06 17.7762 18.9783 17.8307 18.9237Z" fill="#F3F3F3"/>
<path d="M17.8218 18.9238C17.8854 18.8694 17.9671 18.8784 18.0215 18.9329L18.5756 19.5686C18.63 19.6231 18.6209 19.7139 18.5574 19.7684C18.4938 19.8229 18.4121 19.8138 18.3576 19.7594L17.8035 19.1236C17.7582 19.0601 17.7582 18.9692 17.8217 18.9238H17.8218ZM18.5484 19.7503C18.6027 19.7049 18.6027 19.6321 18.5665 19.5778L18.0124 18.9419C17.967 18.8966 17.8944 18.8875 17.8399 18.9329C17.7854 18.9783 17.7854 19.051 17.8217 19.1054L18.3758 19.7412C18.4212 19.7956 18.4939 19.7956 18.5483 19.7503H18.5484Z" fill="white"/>
<path d="M16.5228 18.5787C16.5864 18.5333 16.6681 18.5515 16.7045 18.615L17.7579 20.1862C17.7943 20.2498 17.7761 20.3315 17.7216 20.3679C17.6581 20.4133 17.5763 20.3951 17.5399 20.3315L16.4865 18.7603C16.4501 18.6968 16.4683 18.6149 16.5227 18.5787H16.5228Z" fill="#F3F3F3"/>
<path d="M16.523 18.5695C16.5865 18.5241 16.6774 18.5423 16.7228 18.6059L17.7763 20.1771C17.8217 20.2406 17.8035 20.3314 17.731 20.3768C17.6673 20.4223 17.5765 20.4041 17.5311 20.3405L16.4776 18.7693C16.4322 18.6967 16.4504 18.6149 16.523 18.5695ZM17.7219 20.3587C17.7763 20.3223 17.7945 20.2497 17.7581 20.1952L16.7047 18.624C16.6683 18.5696 16.5956 18.5604 16.5322 18.5968C16.4776 18.6331 16.4594 18.7057 16.4958 18.7603L17.5493 20.3314C17.5856 20.3768 17.6674 20.395 17.7218 20.3586L17.7219 20.3587Z" fill="white"/>
<path d="M16.3321 19.9228C16.3957 19.8865 16.4774 19.9047 16.5137 19.9682L16.9316 20.7039C16.9679 20.7675 16.9406 20.8492 16.877 20.8855C16.8134 20.9219 16.7317 20.9037 16.6954 20.8401L16.2777 20.1045C16.2504 20.0409 16.2686 19.9591 16.332 19.9229L16.3321 19.9228Z" fill="#F3F3F3"/>
<path d="M16.3322 19.9137C16.4048 19.8773 16.4866 19.8955 16.5229 19.9591L16.9406 20.6947C16.977 20.7583 16.9588 20.8491 16.8862 20.8854C16.8135 20.9218 16.7317 20.9036 16.6955 20.84L16.2777 20.1044C16.2413 20.0408 16.2595 19.9591 16.3321 19.9137H16.3322ZM16.8771 20.8764C16.9316 20.84 16.9588 20.7674 16.9225 20.7129L16.5048 19.9772C16.4684 19.9228 16.3957 19.9046 16.3413 19.9318C16.2867 19.9682 16.2595 20.0408 16.2958 20.0953L16.7137 20.8309C16.7408 20.8854 16.8226 20.9128 16.8771 20.8764Z" fill="white"/>
<path d="M15.1242 19.3234C15.1969 19.2962 15.2695 19.3234 15.2968 19.3869L16.0325 21.1398C16.0597 21.2033 16.0234 21.2851 15.9598 21.3123C15.8963 21.3395 15.8145 21.3123 15.7873 21.2487L15.0517 19.496C15.0244 19.4323 15.0607 19.3506 15.1242 19.3234Z" fill="#F3F3F3"/>
<path d="M15.1242 19.3143C15.1968 19.2871 15.2786 19.3143 15.3149 19.3869L16.0506 21.1398C16.0638 21.1747 16.0626 21.2134 16.0472 21.2475C16.0319 21.2815 16.0037 21.3081 15.9689 21.3214C15.8962 21.3487 15.8144 21.3214 15.7782 21.2487L15.0425 19.496C15.0152 19.4323 15.0516 19.3507 15.1242 19.3143ZM15.9507 21.3033C16.0142 21.276 16.0415 21.2034 16.0142 21.1489L15.2786 19.396C15.2514 19.3325 15.1787 19.3052 15.1152 19.3325C15.0516 19.3597 15.0242 19.4323 15.0516 19.4869L15.7872 21.2397C15.8235 21.3033 15.8871 21.3305 15.9507 21.3033Z" fill="white"/>
<path d="M14.6793 20.613C14.7521 20.5858 14.8246 20.6221 14.8519 20.6948L15.1153 21.494C15.1425 21.5576 15.0971 21.6393 15.0336 21.6575C14.9609 21.6847 14.8883 21.6484 14.8611 21.5757L14.5976 20.7765C14.5705 20.713 14.6067 20.6403 14.6794 20.613H14.6793Z" fill="#F3F3F3"/>
<path d="M14.6702 20.6039C14.7051 20.5908 14.7438 20.592 14.7779 20.6073C14.8119 20.6226 14.8385 20.6508 14.8518 20.6857L15.1152 21.4849C15.1424 21.5575 15.097 21.6393 15.0243 21.6666C14.9894 21.6797 14.9506 21.6785 14.9166 21.6632C14.8826 21.6479 14.856 21.6197 14.8427 21.5848L14.5793 20.7856C14.5612 20.7129 14.5975 20.6312 14.6702 20.6039ZM15.0244 21.6483C15.0879 21.6302 15.1242 21.5575 15.1061 21.494L14.8427 20.6948C14.8246 20.6312 14.7519 20.6039 14.6884 20.6221C14.6247 20.6403 14.5884 20.7129 14.6066 20.7765L14.87 21.5757C14.8746 21.5911 14.8824 21.6054 14.8929 21.6176C14.9034 21.6298 14.9164 21.6396 14.931 21.6465C14.9455 21.6534 14.9614 21.6571 14.9775 21.6574C14.9936 21.6577 15.0095 21.6546 15.0244 21.6484V21.6483Z" fill="white"/>
<path d="M13.6076 19.7866C13.6801 19.7684 13.7529 19.8138 13.7619 19.8865L14.1434 21.7483C14.1615 21.8209 14.107 21.8845 14.0343 21.9026C13.9618 21.9208 13.889 21.8755 13.88 21.8028L13.4984 19.9409C13.4894 19.8774 13.5348 19.8047 13.6075 19.7865L13.6076 19.7866Z" fill="#F3F3F3"/>
<path d="M13.6077 19.7774C13.6894 19.7593 13.762 19.8138 13.7802 19.8865L14.1617 21.7483C14.1799 21.8209 14.1253 21.9026 14.0526 21.9117C13.9709 21.9299 13.8982 21.8755 13.8801 21.8028L13.4986 19.9409C13.4805 19.8683 13.5259 19.7956 13.6076 19.7775L13.6077 19.7774ZM14.0344 21.8935C14.0981 21.8845 14.1435 21.8209 14.1344 21.7482L13.7529 19.8865C13.7439 19.8229 13.6713 19.7775 13.6076 19.7956C13.544 19.8047 13.4987 19.8683 13.5078 19.9409L13.8892 21.8028C13.9073 21.8664 13.9709 21.9026 14.0345 21.8936L14.0344 21.8935Z" fill="white"/>
<path d="M12.9174 20.9672C12.99 20.9581 13.0536 21.0036 13.0718 21.0762L13.1807 21.9117C13.1898 21.9844 13.1353 22.048 13.0626 22.0571C12.99 22.0662 12.9265 22.0208 12.9083 21.9481L12.7993 21.1125C12.7902 21.0399 12.8447 20.9763 12.9174 20.9672Z" fill="#F3F3F3"/>
<path d="M12.9174 20.9581C12.9992 20.9491 13.0718 21.0036 13.0809 21.0763L13.1899 21.9118C13.199 21.9844 13.1445 22.0571 13.0627 22.0662C12.981 22.0753 12.9083 22.0208 12.8992 21.948L12.7903 21.1125C12.7812 21.0399 12.8357 20.9672 12.9174 20.9581ZM13.0536 22.048C13.1172 22.039 13.1718 21.9753 13.1627 21.9118L13.0536 21.0763C13.0445 21.0127 12.981 20.9672 12.9174 20.9763C12.8539 20.9854 12.7993 21.049 12.8084 21.1125L12.9174 21.9481C12.9265 22.0117 12.9901 22.0571 13.0536 22.048Z" fill="white"/>
<path d="M11.9819 19.95C12.0546 19.95 12.1181 20.0045 12.1181 20.0772V21.9752C12.1181 22.0479 12.0546 22.1025 11.9819 22.1025C11.9093 22.1025 11.8457 22.0479 11.8457 21.9752V20.0772C11.8548 20.0045 11.9093 19.95 11.9819 19.95Z" fill="#F3F3F3"/>
<path d="M11.982 19.9409C12.0637 19.9409 12.1273 20.0045 12.1273 20.0771V21.9753C12.1273 22.048 12.0637 22.1115 11.982 22.1115C11.9002 22.1115 11.8367 22.048 11.8367 21.9753V20.0772C11.8367 20.0046 11.9093 19.9409 11.982 19.9409ZM11.982 22.0934C12.0455 22.0934 12.1091 22.039 12.1091 21.9753V20.0772C12.1091 20.0136 12.0546 19.9591 11.982 19.9591C11.9184 19.9591 11.8549 20.0136 11.8549 20.0772V21.9753C11.8639 22.039 11.9184 22.0934 11.982 22.0934Z" fill="white"/>
<path d="M11.0736 20.9672C11.1463 20.9763 11.2007 21.0307 11.2007 21.1034L11.1372 21.9481C11.1282 22.0207 11.0645 22.0752 10.9919 22.0662C10.9192 22.057 10.8647 22.0026 10.8647 21.9299L10.9283 21.0852C10.9374 21.0126 11.001 20.9581 11.0736 20.9672Z" fill="#F3F3F3"/>
<path d="M11.0737 20.9581C11.1554 20.9672 11.2099 21.0308 11.2099 21.1034L11.1463 21.9481C11.1372 22.0208 11.0737 22.0843 10.9919 22.0752C10.9103 22.0662 10.8557 22.0026 10.8557 21.9299L10.9193 21.0852C10.9284 21.0036 10.9919 20.9491 11.0737 20.9581ZM10.9919 22.0571C11.0555 22.0571 11.1192 22.0117 11.1192 21.9481L11.1827 21.1034C11.1827 21.0399 11.1372 20.9854 11.0646 20.9763C11.001 20.9763 10.9375 21.0217 10.9375 21.0853L10.8739 21.9299C10.8739 21.9935 10.9283 22.0481 10.9919 22.0571Z" fill="white"/>
<path d="M10.3927 19.7866C10.4653 19.8047 10.5107 19.8682 10.5016 19.9409L10.1292 21.8027C10.1111 21.8754 10.0475 21.9209 9.97484 21.9026C9.90218 21.8845 9.85681 21.8209 9.8659 21.7482L10.2383 19.8864C10.2474 19.8228 10.32 19.7775 10.3927 19.7866Z" fill="#F3F3F3"/>
<path d="M10.3926 19.7774C10.4742 19.7956 10.5197 19.8684 10.5106 19.9409L10.1382 21.8028C10.12 21.8755 10.0474 21.9299 9.96571 21.9118C9.88396 21.8936 9.83849 21.8209 9.84758 21.7483L10.22 19.8865C10.2381 19.8138 10.3108 19.7684 10.3925 19.7775L10.3926 19.7774ZM9.96571 21.8936C10.0293 21.9027 10.0928 21.8664 10.111 21.8028L10.4833 19.9409C10.4924 19.8774 10.4561 19.8138 10.3835 19.7956C10.3199 19.7866 10.2563 19.8229 10.2381 19.8866L9.86577 21.7483C9.85668 21.8209 9.90205 21.8755 9.96571 21.8936Z" fill="white"/>
<path d="M9.30272 20.604C9.37547 20.6222 9.42085 20.6948 9.40266 20.7675L9.1756 21.5849C9.1575 21.6575 9.08485 21.6938 9.01219 21.6757C8.99488 21.6716 8.97857 21.664 8.96418 21.6536C8.94978 21.6431 8.9376 21.6299 8.92832 21.6147C8.91903 21.5995 8.91284 21.5826 8.91008 21.5651C8.90732 21.5475 8.90806 21.5295 8.91225 21.5122L9.13931 20.6948C9.1575 20.6222 9.23007 20.5859 9.30272 20.604Z" fill="#F3F3F3"/>
<path d="M9.30267 20.5949C9.37542 20.613 9.42989 20.6948 9.40261 20.7674L9.17555 21.5848C9.15745 21.6575 9.0757 21.703 9.00305 21.6847C8.93039 21.6666 8.87592 21.5848 8.90311 21.5122L9.13017 20.6948C9.14836 20.6221 9.22102 20.5766 9.30267 20.5948V20.5949ZM9.00305 21.6575C9.06661 21.6757 9.13927 21.6393 9.15745 21.5757L9.38442 20.7583C9.40261 20.6948 9.36633 20.6312 9.29367 20.613C9.23011 20.5948 9.15745 20.6312 9.13927 20.6948L8.9122 21.5122C8.90311 21.5757 8.93939 21.6393 9.00305 21.6575Z" fill="white"/>
<path d="M8.85778 19.3234C8.93044 19.3506 8.95763 19.4323 8.93044 19.4959L8.20388 21.2488C8.17669 21.3124 8.09485 21.3487 8.03138 21.3124C7.96772 21.276 7.93135 21.2034 7.95863 21.1398L8.68519 19.387C8.71238 19.3234 8.79431 19.287 8.85778 19.3234Z" fill="#F3F3F3"/>
<path d="M8.85781 19.3143C8.8927 19.3276 8.92091 19.3542 8.93623 19.3882C8.95155 19.4223 8.95275 19.461 8.93956 19.496L8.21299 21.2487C8.18571 21.3214 8.10396 21.3487 8.02221 21.3214C7.98734 21.3081 7.95915 21.2815 7.94383 21.2475C7.92851 21.2134 7.9273 21.1747 7.94046 21.1398L8.66703 19.3869C8.7034 19.3143 8.78515 19.278 8.85781 19.3143ZM8.03131 21.3033C8.09487 21.3305 8.16753 21.3033 8.19481 21.2397L8.92137 19.4869C8.94856 19.4233 8.91228 19.3597 8.84871 19.3325C8.78515 19.3053 8.71249 19.3325 8.68521 19.396L7.95865 21.1489C7.94046 21.2033 7.96774 21.276 8.03131 21.3033Z" fill="white"/>
<path d="M7.63176 19.9046C7.69532 19.9409 7.72251 20.0135 7.69532 20.0771L7.31385 20.8309C7.27748 20.8945 7.20482 20.9218 7.13216 20.8854C7.0686 20.8491 7.04141 20.7765 7.0686 20.7129L7.45016 19.9592C7.48644 19.8955 7.5591 19.8682 7.63176 19.9046Z" fill="#F3F3F3"/>
<path d="M7.63166 19.8955C7.70431 19.9318 7.7315 20.0136 7.69522 20.0862L7.31375 20.84C7.27738 20.9127 7.19563 20.94 7.12306 20.9036C7.05041 20.8673 7.02313 20.7855 7.0595 20.7129L7.44088 19.9592C7.47725 19.8864 7.559 19.8592 7.63166 19.8955ZM7.13216 20.8855C7.19572 20.9127 7.26838 20.8945 7.29556 20.831L7.67703 20.0772C7.70422 20.0226 7.67703 19.95 7.62256 19.9137C7.559 19.8865 7.48635 19.9046 7.45906 19.9682L7.0776 20.7219C7.05041 20.7765 7.0776 20.8492 7.13216 20.8855Z" fill="white"/>
<path d="M7.45004 18.5606C7.51361 18.6059 7.53179 18.6877 7.48642 18.7422L6.43286 20.3134C6.39658 20.3769 6.31473 20.386 6.25126 20.3497C6.1877 20.3042 6.16951 20.2226 6.21489 20.168L7.26845 18.5968C7.30473 18.5333 7.38648 18.5152 7.45004 18.5606Z" fill="#F3F3F3"/>
<path d="M7.45004 18.5513C7.5136 18.5968 7.53179 18.6876 7.49542 18.7512L6.44195 20.3224C6.39657 20.3859 6.31482 20.4041 6.24217 20.3587C6.1786 20.3133 6.16042 20.2225 6.1967 20.1588L7.25026 18.5877C7.29564 18.5241 7.38648 18.5059 7.45004 18.5513ZM6.25126 20.3405C6.30564 20.3768 6.38748 20.3677 6.42376 20.3133L7.47732 18.7421C7.5136 18.6876 7.49551 18.615 7.44095 18.5786C7.38648 18.5423 7.30473 18.5514 7.26845 18.6058L6.21489 20.1679C6.1786 20.2225 6.1967 20.3043 6.25126 20.3405Z" fill="white"/>
<path d="M6.12395 18.8965C6.17851 18.9419 6.19661 19.0236 6.15123 19.0781L5.62445 19.7411C5.57907 19.7956 5.49732 19.8047 5.44286 19.7593C5.38839 19.7139 5.3702 19.6322 5.41567 19.5776L5.94236 18.9146C5.98773 18.8602 6.06948 18.8511 6.12395 18.8965Z" fill="#F3F3F3"/>
<path d="M6.13307 18.8875C6.19663 18.9328 6.20572 19.0237 6.16025 19.0873L5.63357 19.7503C5.58819 19.8138 5.49735 19.8229 5.43379 19.7684C5.37022 19.723 5.36113 19.6322 5.4066 19.5686L5.93329 18.9057C5.97866 18.842 6.0695 18.833 6.13307 18.8875ZM5.45197 19.7503C5.50635 19.7956 5.5791 19.7866 5.62447 19.7321L6.15125 19.0691C6.18763 19.0147 6.17844 18.9419 6.12407 18.8966C6.0695 18.8511 5.99685 18.8602 5.95147 18.9148L5.42469 19.5777C5.38841 19.6322 5.3976 19.7139 5.45197 19.7503Z" fill="white"/>
<path d="M6.21491 17.5342C6.26938 17.5886 6.26938 17.6704 6.21491 17.7158L4.87082 19.0508C4.81626 19.1054 4.7346 19.0963 4.68913 19.0508C4.64376 19.0054 4.63466 18.9146 4.68913 18.8692L6.02413 17.5342C6.07869 17.4796 6.16044 17.4796 6.21491 17.5342Z" fill="#F3F3F3"/>
<path d="M6.22395 17.5251C6.25012 17.5518 6.26478 17.5876 6.26478 17.625C6.26478 17.6623 6.25012 17.6982 6.22395 17.7248L4.87977 19.06C4.85312 19.0862 4.81727 19.1008 4.77992 19.1008C4.74258 19.1008 4.70672 19.0862 4.68008 19.06C4.65386 19.0333 4.63916 18.9975 4.63916 18.9601C4.63916 18.9227 4.65386 18.8868 4.68008 18.8601L6.02417 17.5251C6.05082 17.4989 6.0867 17.4843 6.12406 17.4843C6.16143 17.4843 6.1973 17.4989 6.22395 17.5251ZM4.68908 19.0508C4.73445 19.0962 4.8162 19.0962 4.86158 19.0508L6.20577 17.7157C6.25124 17.6703 6.25124 17.5886 6.20577 17.5432C6.16039 17.4977 6.07864 17.4977 6.03327 17.5432L4.68908 18.8782C4.6437 18.9236 4.6437 18.9963 4.68908 19.0507V19.0508Z" fill="white"/>
<path d="M4.85245 17.6069C4.89783 17.6612 4.89783 17.7431 4.84336 17.7885L4.19855 18.3334C4.14408 18.3788 4.06233 18.3697 4.01686 18.3152C3.97148 18.2607 3.97148 18.179 4.02595 18.1336L4.67077 17.5887C4.72533 17.5432 4.80698 17.5523 4.85245 17.6069Z" fill="#F3F3F3"/>
<path d="M4.86155 17.5977C4.91601 17.6613 4.90692 17.7521 4.85245 17.7975L4.20764 18.3424C4.15317 18.397 4.06233 18.3879 4.00786 18.3243C3.9533 18.2607 3.96239 18.1699 4.01686 18.1245L4.66176 17.5796C4.71614 17.5251 4.80708 17.5342 4.86145 17.5978L4.86155 17.5977ZM4.02595 18.3152C4.07142 18.3697 4.14408 18.3697 4.19845 18.3334L4.84336 17.7885C4.88873 17.7431 4.89783 17.6703 4.85245 17.616C4.80698 17.5614 4.73433 17.5614 4.67995 17.5978L4.03505 18.1426C3.98058 18.188 3.98058 18.2609 4.02595 18.3152Z" fill="white"/>
<path d="M5.21582 16.2991C5.26119 16.3627 5.243 16.4444 5.17944 16.4808L3.59919 17.5343C3.53563 17.5706 3.45388 17.5524 3.4176 17.4979C3.37213 17.4344 3.39032 17.3526 3.45388 17.3163L5.03422 16.2628C5.08878 16.2265 5.17044 16.2446 5.21591 16.2991H5.21582Z" fill="#F3F3F3"/>
<path d="M5.22494 16.299C5.27032 16.3626 5.25213 16.4534 5.18857 16.4989L3.60832 17.5523C3.54476 17.5978 3.45391 17.5795 3.40854 17.507C3.36307 17.4434 3.38135 17.3525 3.44482 17.3072L5.02516 16.2536C5.08873 16.2082 5.17957 16.2264 5.22494 16.299ZM3.42673 17.4888C3.46301 17.5432 3.53566 17.5614 3.59013 17.5251L5.17038 16.4716C5.22494 16.4353 5.24304 16.3626 5.19766 16.2991C5.16138 16.2445 5.08873 16.2264 5.03416 16.2627L3.45391 17.3163C3.39944 17.3616 3.39035 17.4343 3.42673 17.4888Z" fill="white"/>
<path d="M3.86252 16.1084C3.89889 16.1719 3.8807 16.2537 3.81714 16.29L3.08148 16.7078C3.01792 16.7441 2.93617 16.7169 2.89989 16.6533C2.86352 16.5898 2.8817 16.508 2.94527 16.4716L3.68092 16.0539C3.74448 16.0175 3.82623 16.0448 3.86261 16.1084H3.86252Z" fill="#F3F3F3"/>
<path d="M3.8717 16.0992C3.90798 16.1719 3.8898 16.2536 3.82623 16.29L3.09058 16.7077C3.02702 16.744 2.93617 16.7168 2.89989 16.6533C2.86352 16.5806 2.8817 16.4989 2.94527 16.4625L3.68092 16.0447C3.74448 16.0084 3.83533 16.0356 3.87161 16.0992H3.8717ZM2.90889 16.6442C2.94527 16.7077 3.01792 16.7259 3.07239 16.6895L3.80805 16.2718C3.86252 16.2354 3.8807 16.1628 3.85352 16.1083C3.81714 16.0447 3.74448 16.0266 3.69002 16.0629L2.95436 16.4807C2.89989 16.5079 2.88161 16.5806 2.90889 16.6442Z" fill="white"/>
<path d="M4.47102 14.9005C4.49821 14.9732 4.47103 15.0458 4.39837 15.073L2.64553 15.7996C2.58196 15.8268 2.50021 15.7906 2.47303 15.7269C2.44574 15.6542 2.47303 15.5816 2.54568 15.5544L4.29853 14.8278C4.36209 14.8007 4.44384 14.8278 4.47102 14.9005Z" fill="#F3F3F3"/>
<path d="M4.48012 14.8914C4.50731 14.964 4.48012 15.0458 4.40746 15.082L2.65462 15.8086C2.61969 15.8218 2.58097 15.8206 2.54694 15.8052C2.5129 15.7899 2.48633 15.7617 2.47303 15.7269C2.44574 15.6542 2.47303 15.5724 2.54568 15.5362L4.29853 14.8096C4.33345 14.7964 4.37217 14.7977 4.40621 14.813C4.44024 14.8283 4.46682 14.8565 4.48012 14.8914ZM2.49112 15.7178C2.5184 15.7814 2.59106 15.8087 2.64553 15.7904L4.39837 15.0639C4.46193 15.0367 4.48921 14.964 4.46193 14.9004C4.43474 14.8369 4.36209 14.8096 4.30753 14.8278L2.55468 15.5544C2.49112 15.5815 2.46393 15.6542 2.49112 15.7179V15.7178Z" fill="white"/>
<path d="M3.19045 14.4464C3.21764 14.519 3.18136 14.5917 3.1087 14.6189L2.30948 14.8823C2.24592 14.9095 2.16417 14.8641 2.14598 14.8005C2.1188 14.7279 2.15508 14.6552 2.22773 14.628L3.02695 14.3646C3.09052 14.3374 3.16317 14.3737 3.19045 14.4464Z" fill="#F3F3F3"/>
<path d="M3.19947 14.4372C3.22675 14.5099 3.19047 14.5916 3.10872 14.6189L2.3095 14.8823C2.23685 14.9095 2.1551 14.8641 2.12782 14.7914C2.10063 14.7188 2.13691 14.637 2.21875 14.6098L3.01788 14.3464C3.09053 14.3283 3.17228 14.3646 3.19957 14.4373L3.19947 14.4372ZM2.1461 14.7824C2.16428 14.846 2.23694 14.8824 2.3005 14.8642L3.09972 14.6007C3.16328 14.5826 3.19057 14.51 3.17238 14.4464C3.15419 14.3829 3.08153 14.3465 3.01797 14.3647L2.21875 14.6281C2.15519 14.6553 2.12791 14.7189 2.1461 14.7824Z" fill="white"/>
<path d="M4.00784 13.3655C4.02593 13.4382 3.98056 13.5108 3.9079 13.5199L2.04602 13.8832C1.97337 13.9014 1.90981 13.8468 1.89171 13.7742C1.87352 13.7015 1.9189 13.6289 1.99156 13.6198L3.85343 13.2565C3.92609 13.2475 3.99884 13.2929 4.00784 13.3655Z" fill="#F3F3F3"/>
<path d="M4.02593 13.3656C4.04412 13.4473 3.98965 13.52 3.91699 13.5381L2.05512 13.9013C1.98246 13.9195 1.90981 13.8651 1.89171 13.7833C1.87353 13.7016 1.92799 13.6289 2.00065 13.6108L3.86253 13.2475C3.93509 13.2293 4.00784 13.2838 4.02593 13.3656ZM1.90981 13.7743C1.9189 13.8378 1.98246 13.8832 2.04603 13.8742L3.9079 13.5109C3.97146 13.5018 4.01684 13.4291 3.99874 13.3656C3.98965 13.302 3.92609 13.2565 3.86243 13.2656L2.00065 13.6289C1.93709 13.6471 1.89171 13.7107 1.90981 13.7742V13.7743Z" fill="white"/>
<path d="M2.84539 12.6662C2.85439 12.7388 2.80902 12.8025 2.73636 12.8116L1.90086 12.9114C1.82811 12.9205 1.76455 12.866 1.75555 12.7933C1.74646 12.7207 1.79183 12.6571 1.86449 12.648L2.70008 12.5481C2.76364 12.539 2.8363 12.5935 2.84539 12.6662Z" fill="#F3F3F3"/>
<path d="M2.85463 12.6663C2.86363 12.7479 2.80916 12.8206 2.7365 12.8297L1.901 12.9296C1.82825 12.9387 1.75569 12.8843 1.7466 12.8025C1.7375 12.7208 1.79197 12.6481 1.86463 12.639L2.70022 12.5391C2.77279 12.53 2.84554 12.5845 2.85454 12.6662L2.85463 12.6663ZM1.7556 12.7934C1.76469 12.857 1.82835 12.9115 1.89191 12.9024L2.72741 12.8025C2.79097 12.7934 2.83644 12.7299 2.82735 12.6663C2.81825 12.6026 2.75469 12.5482 2.69113 12.5573L1.85554 12.6572C1.79197 12.6663 1.7466 12.7299 1.7556 12.7934Z" fill="white"/>
<path d="M3.86252 11.7853C3.86252 11.858 3.80814 11.9216 3.73539 11.9216H1.83733C1.76467 11.9216 1.71021 11.858 1.71021 11.7854C1.71021 11.7127 1.76467 11.649 1.83733 11.649H3.73549C3.80814 11.649 3.8627 11.7127 3.8627 11.7854L3.86252 11.7853Z" fill="#F3F3F3"/>
<path d="M3.87177 11.7852C3.87177 11.867 3.80811 11.9305 3.73545 11.9305H1.83739C1.76473 11.9305 1.70117 11.867 1.70117 11.7852C1.70117 11.7035 1.76473 11.6399 1.83739 11.6399H3.73555C3.8082 11.6399 3.87177 11.7035 3.87177 11.7852ZM1.71927 11.7762C1.71927 11.8398 1.77373 11.9033 1.83739 11.9033H3.73545C3.79902 11.9033 3.85358 11.8489 3.85358 11.7762C3.85358 11.7126 3.79902 11.649 3.73545 11.649H1.83739C1.77383 11.6581 1.71927 11.7126 1.71927 11.7762Z" fill="white"/>
<path d="M2.8544 10.8679C2.84521 10.9406 2.79074 10.9951 2.71809 10.9951L1.8734 10.9315C1.80084 10.9224 1.74637 10.8588 1.75537 10.7862C1.76446 10.7135 1.81902 10.6591 1.89168 10.6591L2.73627 10.7226C2.79984 10.7317 2.8544 10.7953 2.8544 10.8679Z" fill="#E2E2E2"/>
<path d="M2.86351 10.868C2.85441 10.9497 2.79085 11.0042 2.71819 11.0042L1.87351 10.9406C1.80094 10.9316 1.73738 10.868 1.74648 10.7862C1.75548 10.7046 1.81913 10.65 1.89179 10.65L2.73638 10.7136C2.80904 10.7227 2.86351 10.7953 2.86351 10.868ZM1.75548 10.7862C1.74648 10.8498 1.80094 10.9135 1.86451 10.9135L2.70919 10.977C2.77266 10.977 2.82723 10.9316 2.83632 10.8589C2.84541 10.7953 2.79085 10.7318 2.72729 10.7318L1.8826 10.6682C1.81913 10.6682 1.76457 10.7226 1.75548 10.7862Z" fill="white"/>
<path d="M4.0259 10.2049C4.00771 10.2776 3.94415 10.323 3.87149 10.314L2.00971 9.93249C1.93705 9.9143 1.89158 9.85074 1.90977 9.77808C1.92796 9.70543 1.99152 9.65996 2.06418 9.66914L3.92605 10.0415C3.98962 10.0596 4.03499 10.1323 4.0259 10.2049Z" fill="#F3F3F3"/>
<path d="M4.03521 10.205C4.01702 10.2867 3.94437 10.3322 3.87171 10.3231L2.00993 9.95071C1.93727 9.93252 1.8828 9.85987 1.90099 9.77821C1.91908 9.69637 1.99174 9.65099 2.0644 9.66008L3.92627 10.0325C3.99893 10.0506 4.0443 10.1233 4.03521 10.205ZM1.91908 9.77812C1.90999 9.84168 1.94627 9.90524 2.00993 9.92343L3.8718 10.2958C3.93537 10.3049 3.99893 10.2686 4.01712 10.1959C4.02612 10.1323 3.98983 10.0687 3.92618 10.0506L2.06449 9.67827C1.99183 9.66918 1.93727 9.71455 1.91908 9.77812Z" fill="white"/>
<path d="M3.20868 9.1152C3.20451 9.1325 3.19697 9.1488 3.18649 9.16318C3.17602 9.17757 3.16281 9.18974 3.14762 9.19901C3.13244 9.20829 3.11557 9.21448 3.098 9.21723C3.08042 9.21998 3.06247 9.21923 3.04518 9.21504L2.22777 8.98798C2.15511 8.96979 2.11883 8.89714 2.13693 8.82448C2.1411 8.80718 2.14863 8.79088 2.15911 8.77649C2.16959 8.76211 2.18279 8.74994 2.19798 8.74066C2.21316 8.73139 2.23003 8.7252 2.24761 8.72245C2.26519 8.7197 2.28313 8.72044 2.30043 8.72464L3.11783 8.9517C3.19049 8.96979 3.22677 9.04254 3.20868 9.1152Z" fill="#F3F3F3"/>
<path d="M3.21763 9.11519C3.19954 9.18775 3.11779 9.24231 3.04513 9.21503L2.22773 8.98797C2.15507 8.96978 2.1096 8.88803 2.12779 8.81547C2.14598 8.74272 2.22773 8.68825 2.30038 8.71553L3.11779 8.94259C3.19045 8.96078 3.23592 9.03353 3.21763 9.11519ZM2.15507 8.81528C2.13688 8.87894 2.17326 8.95159 2.23682 8.96969L3.05423 9.19675C3.11779 9.21494 3.18135 9.17856 3.19954 9.10591C3.21763 9.04234 3.18135 8.96969 3.11779 8.95159L2.30038 8.72453C2.23682 8.71544 2.17326 8.75162 2.15507 8.81528Z" fill="white"/>
<path d="M4.48915 8.67931C4.46197 8.75187 4.38012 8.77915 4.31665 8.75187L2.56372 8.02531C2.50015 7.99812 2.46387 7.91637 2.49106 7.85281C2.51834 7.78015 2.60009 7.75287 2.66365 7.78015L4.4165 8.50672C4.48915 8.5339 4.51644 8.61575 4.48915 8.67931Z" fill="#F3F3F3"/>
<path d="M4.49824 8.68831C4.48494 8.72321 4.45835 8.75141 4.42429 8.76673C4.39023 8.78206 4.35149 8.78325 4.31655 8.77006L2.56371 8.0435C2.49105 8.01631 2.46386 7.93456 2.49105 7.85281C2.50435 7.81791 2.53094 7.78971 2.565 7.77439C2.59906 7.75906 2.6378 7.75787 2.67274 7.77106L4.42558 8.49762C4.49824 8.5339 4.52543 8.61575 4.49824 8.68831ZM2.50924 7.8619C2.48205 7.92547 2.50924 7.99812 2.5728 8.02531L4.32565 8.75187C4.38921 8.77915 4.45277 8.74278 4.48005 8.67922C4.50724 8.61565 4.48005 8.543 4.41649 8.51581L2.66365 7.78925C2.60008 7.77106 2.52743 7.79834 2.50924 7.8619Z" fill="white"/>
<path d="M3.89896 7.45311C3.86268 7.51668 3.79003 7.54396 3.72646 7.51668L2.97262 7.1353C2.90906 7.10802 2.88178 7.02627 2.91815 6.95361C2.95443 6.89005 3.02709 6.86277 3.09065 6.89005L3.8444 7.27152C3.90806 7.3078 3.93534 7.38965 3.89896 7.45311Z" fill="#F3F3F3"/>
<path d="M3.90793 7.46222C3.87155 7.53488 3.7898 7.56216 3.71715 7.52579L2.9634 7.14432C2.89074 7.10804 2.86346 7.02629 2.89983 6.95363C2.93611 6.88097 3.01796 6.85369 3.09052 6.89007L3.84427 7.27154C3.91702 7.29872 3.94421 7.38966 3.90793 7.46222ZM2.92702 6.96272C2.89983 7.02629 2.91802 7.09894 2.98158 7.12622L3.73533 7.50769C3.7899 7.53488 3.86255 7.50769 3.89883 7.45313C3.92602 7.38957 3.90793 7.31691 3.84436 7.28963L3.08133 6.90835C3.02686 6.88116 2.95421 6.89926 2.92693 6.96282L2.92702 6.96272Z" fill="white"/>
<path d="M5.23392 7.28055C5.18855 7.34421 5.11589 7.36239 5.05233 7.31693L3.48108 6.27255C3.41761 6.23618 3.40852 6.15443 3.4448 6.09086C3.48117 6.0273 3.56292 6.00911 3.62649 6.05449L5.20674 7.10805C5.2612 7.14443 5.27939 7.22618 5.23392 7.28055Z" fill="#F3F3F3"/>
<path d="M5.2429 7.28961C5.19753 7.35327 5.10669 7.37136 5.04322 7.33508L3.47197 6.28152C3.4084 6.23614 3.39022 6.15439 3.43559 6.08183C3.48106 6.01817 3.5719 5.99999 3.63547 6.03636L5.20662 7.08983C5.27928 7.1353 5.28837 7.22605 5.2429 7.28961ZM3.45378 6.09083C3.4175 6.1453 3.42659 6.22705 3.48097 6.26333L5.06131 7.31699C5.11578 7.35336 5.18844 7.33517 5.22481 7.28071C5.26109 7.22614 5.252 7.14439 5.19762 7.10811L3.61719 6.05455C3.56272 6.01817 3.49015 6.03636 3.45378 6.09083Z" fill="white"/>
<path d="M4.89793 5.9637C4.85255 6.01817 4.7708 6.03636 4.71633 5.99089L4.05333 5.4733C3.99887 5.42783 3.98977 5.34608 4.03515 5.29161C4.08052 5.23714 4.16227 5.21895 4.21683 5.26442L4.87974 5.78202C4.9343 5.82749 4.9434 5.90914 4.89793 5.9637Z" fill="#F3F3F3"/>
<path d="M4.90692 5.97275C4.86154 6.03641 4.7707 6.0455 4.70714 6.00003L4.04414 5.48244C3.98058 5.43706 3.97148 5.34622 4.01695 5.28275C4.06233 5.21909 4.15317 5.21 4.21664 5.25547L4.87964 5.77306C4.94329 5.81853 4.95239 5.90928 4.90692 5.97294V5.97275ZM4.03504 5.29166C3.98967 5.34612 3.99876 5.41878 4.05323 5.46416L4.71623 5.98194C4.7707 6.01822 4.84336 6.00912 4.88873 5.95466C4.9342 5.90019 4.92511 5.82753 4.87064 5.78216L4.20764 5.26437C4.15317 5.22809 4.08033 5.23719 4.03504 5.29166Z" fill="white"/>
<path d="M6.25119 6.05454C6.19682 6.1091 6.11498 6.1091 6.0696 6.05454L4.71651 4.71954C4.66204 4.66507 4.67104 4.58332 4.71651 4.53785C4.77098 4.48348 4.85273 4.48348 4.8981 4.53785L6.24229 5.87295C6.29676 5.91832 6.29676 6.00916 6.25138 6.05463L6.25119 6.05454Z" fill="#F3F3F3"/>
<path d="M6.25115 6.06373C6.2245 6.08989 6.18865 6.10455 6.1513 6.10455C6.11396 6.10455 6.07811 6.08989 6.05146 6.06373L4.70718 4.72854C4.68096 4.70189 4.66626 4.66599 4.66626 4.6286C4.66626 4.59121 4.68096 4.55532 4.70718 4.52867C4.73383 4.50247 4.7697 4.48779 4.80707 4.48779C4.84444 4.48779 4.88031 4.50247 4.90696 4.52867L6.25115 5.86376C6.31471 5.91823 6.31471 6.00907 6.25115 6.06354V6.06373ZM4.72555 4.54685C4.68008 4.59232 4.68008 4.67407 4.72555 4.71935L6.06965 6.05445C6.11512 6.09992 6.19677 6.09992 6.24215 6.05445C6.28762 6.00907 6.28762 5.92732 6.24215 5.88195L4.89805 4.53785C4.85268 4.49248 4.77993 4.49238 4.72555 4.54685Z" fill="white"/>
<path d="M6.16953 4.70126C6.11506 4.74672 6.03331 4.74672 5.98784 4.69216L5.43378 4.05644C5.3885 4.00197 5.3975 3.92022 5.45206 3.87485C5.50644 3.82938 5.58828 3.82938 5.63366 3.88385L6.18772 4.51966C6.23309 4.56504 6.224 4.64679 6.16953 4.70126Z" fill="#F3F3F3"/>
<path d="M6.17852 4.70132C6.11495 4.75579 6.0332 4.74679 5.97864 4.69223L5.42467 4.05651C5.3702 4.00204 5.3793 3.91119 5.44286 3.85673C5.50642 3.80216 5.58817 3.81126 5.64264 3.86582L6.1967 4.50145C6.24208 4.5651 6.24208 4.65595 6.17852 4.70132ZM5.45195 3.87491C5.39739 3.92029 5.39739 3.99294 5.43377 4.04741L5.98783 4.68313C6.0332 4.7286 6.10586 4.7377 6.16033 4.69223C6.2148 4.64685 6.2148 4.5741 6.17852 4.51973L5.62445 3.88391C5.57908 3.82954 5.50633 3.82954 5.45195 3.87491Z" fill="white"/>
<path d="M7.47729 5.04647C7.41373 5.09184 7.33198 5.07365 7.2956 5.01009L6.23304 3.43884C6.19666 3.37528 6.21485 3.29353 6.26932 3.25725C6.33288 3.21187 6.41463 3.23006 6.45101 3.29362L7.50448 4.86478C7.54995 4.92834 7.53176 5.01018 7.47729 5.04647Z" fill="#F3F3F3"/>
<path d="M7.47729 5.0555C7.41373 5.10097 7.32288 5.08269 7.27742 5.01922L6.22395 3.44797C6.17857 3.38441 6.19676 3.29366 6.26932 3.24829C6.33288 3.20282 6.42373 3.221 6.4692 3.28457L7.52267 4.85572C7.56804 4.92838 7.54985 5.01013 7.47729 5.0555ZM6.27832 3.26638C6.22385 3.30266 6.20567 3.37532 6.24204 3.42988L7.29551 5.00103C7.33188 5.0555 7.40454 5.0646 7.46801 5.02822C7.52257 4.99194 7.54076 4.91929 7.50438 4.86482L6.45101 3.30266C6.41463 3.24829 6.33288 3.23 6.27851 3.26638H6.27832Z" fill="white"/>
<path d="M7.66793 3.70229C7.60437 3.73857 7.52262 3.72047 7.48634 3.65691L7.0685 2.92125C7.03222 2.85769 7.0594 2.77594 7.12306 2.73957C7.18662 2.70329 7.26837 2.72138 7.30465 2.78504L7.7224 3.5206C7.74968 3.58416 7.7314 3.66591 7.66793 3.70229Z" fill="#F3F3F3"/>
<path d="M7.66792 3.71138C7.59526 3.74766 7.51351 3.72957 7.47723 3.66591L7.05938 2.93035C7.0231 2.86669 7.04129 2.77594 7.11395 2.73957C7.1866 2.70329 7.26835 2.72138 7.30463 2.78504L7.72238 3.5206C7.75876 3.58416 7.74048 3.66591 7.66792 3.71138ZM7.12304 2.74866C7.06848 2.78494 7.04129 2.8576 7.07757 2.91216L7.49542 3.64782C7.5317 3.70219 7.60435 3.72047 7.65882 3.69319C7.71338 3.65691 7.74057 3.58416 7.70429 3.52969L7.28645 2.79404C7.25926 2.73966 7.17751 2.71229 7.12304 2.74866Z" fill="white"/>
<path d="M8.87578 4.30171C8.80322 4.3289 8.73047 4.30171 8.70328 4.23815L7.96762 2.48521C7.94044 2.42165 7.97672 2.3399 8.04028 2.31262C8.11294 2.28543 8.18559 2.31262 8.21278 2.37618L8.94844 4.12903C8.97572 4.19259 8.93944 4.27434 8.87578 4.30153V4.30171Z" fill="#F3F3F3"/>
<path d="M8.87587 4.31086C8.80331 4.33805 8.72156 4.31086 8.68518 4.23811L7.94953 2.48536C7.93633 2.45042 7.93753 2.41168 7.95285 2.37762C7.96818 2.34357 7.99638 2.31697 8.03128 2.30367C8.10393 2.27649 8.18568 2.30367 8.22206 2.37633L8.95762 4.12917C8.9849 4.19274 8.94853 4.27449 8.87587 4.31086ZM8.04946 2.32186C7.9859 2.34905 7.95862 2.4218 7.9859 2.47627L8.72146 4.22902C8.74865 4.29258 8.82131 4.31977 8.88487 4.29258C8.94843 4.26539 8.97581 4.19264 8.94843 4.13817L8.21287 2.38533C8.1765 2.32177 8.11293 2.29449 8.04937 2.32177L8.04946 2.32186Z" fill="white"/>
<path d="M9.32093 3.01208C9.24828 3.03927 9.17562 3.0029 9.14843 2.93033L8.88499 2.13102C8.85781 2.06746 8.90318 1.98571 8.96674 1.96762C9.03031 1.94943 9.11206 1.97671 9.13924 2.04937L9.40268 2.84858C9.42987 2.91215 9.39359 2.9849 9.32093 3.01208Z" fill="#F3F3F3"/>
<path d="M9.32995 3.02109C9.29502 3.03426 9.25631 3.03304 9.22227 3.01772C9.18823 3.0024 9.16166 2.97422 9.14836 2.93934L8.88492 2.14012C8.85773 2.06747 8.90311 1.98581 8.97586 1.95853C9.01078 1.94537 9.0495 1.94658 9.08354 1.9619C9.11757 1.97722 9.14415 2.0054 9.15745 2.04028L9.42079 2.8395C9.43898 2.91215 9.40261 2.9939 9.32995 3.02109ZM8.97576 1.97672C8.9122 1.99481 8.87583 2.06747 8.89401 2.13103L9.15745 2.93034C9.17554 2.9939 9.2482 3.02109 9.31186 3.0029C9.37542 2.98481 9.4117 2.91215 9.39351 2.84859L9.13017 2.04928C9.12554 2.03386 9.11772 2.01959 9.10721 2.0074C9.0967 1.99521 9.08374 1.98536 9.06917 1.97851C9.05461 1.97165 9.03876 1.96794 9.02267 1.96762C9.00658 1.96729 8.99059 1.97036 8.97576 1.97662V1.97672Z" fill="white"/>
<path d="M10.3927 3.83853C10.32 3.85671 10.2474 3.81134 10.2383 3.73859L9.8568 1.87681C9.83861 1.80415 9.89317 1.74059 9.96573 1.7224C10.0385 1.70421 10.111 1.74959 10.1201 1.82234L10.5017 3.68421C10.5107 3.74768 10.4653 3.82034 10.3927 3.83853Z" fill="#F3F3F3"/>
<path d="M10.3925 3.84755C10.3108 3.86574 10.2381 3.81118 10.22 3.73852L9.83849 1.87674C9.8203 1.80409 9.87486 1.72234 9.94752 1.71324C10.0293 1.69505 10.1019 1.74962 10.12 1.82227L10.5016 3.68415C10.5197 3.75671 10.4743 3.82946 10.3925 3.84755ZM9.96571 1.73143C9.90205 1.74052 9.85667 1.80409 9.86577 1.87674L10.2472 3.73862C10.2563 3.80209 10.3289 3.84755 10.3925 3.82937C10.4561 3.82027 10.5015 3.75671 10.4924 3.68405L10.1109 1.82218C10.0928 1.75871 10.0294 1.72234 9.96571 1.73143Z" fill="white"/>
<path d="M11.0827 2.65777C11.01 2.66686 10.9465 2.62149 10.9283 2.54883L10.8194 1.71324C10.8103 1.64058 10.8647 1.57702 10.9375 1.56793C11.01 1.55883 11.0736 1.6043 11.0918 1.67696L11.2007 2.51246C11.2098 2.58511 11.1554 2.64868 11.0827 2.65777Z" fill="#F3F3F3"/>
<path d="M11.0828 2.66687C11.001 2.67596 10.9283 2.62149 10.9193 2.54874L10.8103 1.71324C10.8012 1.64059 10.8557 1.56793 10.9374 1.55884C11.0192 1.54984 11.0918 1.6043 11.1009 1.67696L11.2099 2.51246C11.219 2.58512 11.1645 2.65777 11.0828 2.66687ZM10.9465 1.57702C10.883 1.58612 10.8284 1.64968 10.8375 1.71324L10.9465 2.54884C10.9556 2.6124 11.0192 2.65777 11.0828 2.64868C11.1463 2.63968 11.2009 2.57602 11.1918 2.51246L11.0828 1.67696C11.0737 1.6134 11.0101 1.56793 10.9465 1.57702Z" fill="white"/>
<path d="M12.0637 22.5565C18.0025 22.5565 22.8168 17.7422 22.8168 11.8034C22.8168 5.86463 18.0025 1.05029 12.0637 1.05029C6.12488 1.05029 1.31055 5.86463 1.31055 11.8034C1.31055 17.7422 6.12488 22.5565 12.0637 22.5565Z" fill="url(#paint2_linear_3263_103743)" fill-opacity="0.2"/>
<g filter="url(#filter0_d_3263_103743)">
<path d="M19.5108 4.98279L10.8374 10.541H10.8283V10.55L10.8192 10.5591L5.40649 19.4868L13.3623 13.084L13.3714 13.075V13.0659L19.5109 4.98288L19.5108 4.98279Z" fill="black" fill-opacity="0.05"/>
</g>
<path d="M19.3474 4.46509L10.7739 10.5591L13.3169 13.0839L19.3474 4.46509Z" fill="#CD151E"/>
<path d="M10.783 10.541L12.0636 11.8034L19.3473 4.46509L10.783 10.541Z" fill="#FA5153"/>
<path d="M10.7829 10.5411L13.3259 13.0658L4.75244 19.1599L10.7829 10.541V10.5411Z" fill="#ACACAC"/>
<path d="M4.75244 19.1599L12.0634 11.8035L10.7828 10.541L4.75244 19.1599Z" fill="#EEEEEE"/>
<defs>
<filter id="filter0_d_3263_103743" x="1.40649" y="1.98279" width="22.1045" height="22.504" filterUnits="userSpaceOnUse" color-interpolation-filters="sRGB">
<feFlood flood-opacity="0" result="BackgroundImageFix"/>
<feColorMatrix in="SourceAlpha" type="matrix" values="0 0 0 0 0 0 0 0 0 0 0 0 0 0 0 0 0 0 127 0" result="hardAlpha"/>
<feOffset dy="1"/>
<feGaussianBlur stdDeviation="2"/>
<feColorMatrix type="matrix" values="0 0 0 0 0 0 0 0 0 0 0 0 0 0 0 0 0 0 0.0509804 0"/>
<feBlend mode="normal" in2="BackgroundImageFix" result="effect1_dropShadow_3263_103743"/>
<feBlend mode="normal" in="SourceGraphic" in2="effect1_dropShadow_3263_103743" result="shape"/>
</filter>
<linearGradient id="paint0_linear_3263_103743" x1="12" y1="23.4375" x2="12" y2="0.1875" gradientUnits="userSpaceOnUse">
<stop offset="0.25" stop-color="#DBDBDA"/>
<stop offset="1" stop-color="white"/>
</linearGradient>
<radialGradient id="paint1_radial_3263_103743" cx="0" cy="0" r="1" gradientUnits="userSpaceOnUse" gradientTransform="translate(13.5108 9.45042) scale(13.1257)">
<stop stop-color="#2ABCE1"/>
<stop offset="0.11363" stop-color="#2ABBE1"/>
<stop offset="1" stop-color="#3375F8"/>
</radialGradient>
<linearGradient id="paint2_linear_3263_103743" x1="11.8594" y1="8.72867" x2="6.84045" y2="17.7331" gradientUnits="userSpaceOnUse">
<stop stop-opacity="0"/>
<stop offset="1"/>
</linearGradient>
</defs>
</svg>
