<svg width="400" height="400" viewBox="0 0 1000 1000" fill="none" xmlns="http://www.w3.org/2000/svg">
<g>
<path d="M603.187 446.639C579.699 446.639 556.206 446.685 532.719 446.588C529.631 446.577 506.769 465.732 507.893 468.216C511.09 475.293 517.578 470.501 522.183 470.764C551.115 472.414 580.116 472.774 609.06 474.213C628.73 475.196 645.742 498.8 640.315 517.339C639.029 521.725 641.676 523.301 643.697 524.666C659.875 535.575 669.71 548.733 666.501 569.808C665.58 575.85 675.236 573.046 679.418 573.143C702.06 573.669 723.508 570.242 743.474 557.443C751.85 552.074 758.968 545.712 766.654 539.812C776.391 532.336 787.547 537.18 797.764 537.077C831.869 536.734 865.985 538.573 900.101 538.693C917.646 538.756 923.693 544.735 916.574 559.893C912.873 567.769 902.945 563.708 896.018 563.645C866.367 563.388 836.636 563.366 807.102 561.132C786.609 559.579 771.775 566.324 755.308 578.243C735.052 592.904 709.949 599.363 683.519 596.793C671.558 595.628 659.4 596.416 647.329 596.416C642.064 596.416 644.833 601.231 644.63 602.796C640.234 636.989 634.523 642.712 600.603 643.774C589.39 644.128 594.278 652.86 594.209 656.63C593.728 683.958 572.922 691.914 551.393 692.257C533.715 692.536 516.02 691.777 498.342 691.36C465.633 690.589 432.791 691.2 400.262 688.367C380.65 686.659 360.858 682.159 343.632 670.245C338.506 666.699 331.833 664.374 328.364 659.251C318.882 645.264 304.407 647.201 290.795 646.767C269.41 646.081 247.997 646.253 226.606 645.716C209.432 645.282 192.281 644.168 175.113 643.688C165.933 643.425 165 636.898 165 630.678C165 623.253 170.294 619.878 177.424 620.015C213.406 620.723 249.381 621.586 285.356 622.431C297.642 622.722 309.95 622.791 322.189 623.727C324.853 623.933 327.483 627.194 329.748 629.433C347.825 647.309 368.405 659.503 394.725 662.381C438.062 667.116 481.539 665.385 524.94 666.933C536.57 667.35 548.155 668.783 559.861 666.807C565.595 665.842 569.435 662.632 570.032 658.023C570.878 651.484 568.711 644.733 560.382 644.174C535.655 642.523 510.899 641.118 486.132 640.176C479.749 639.936 477.64 636.092 477.044 631.712C476.152 625.167 478.26 619.238 486.253 618.29C511.444 615.292 536.605 618.65 561.79 618.816C578.263 618.924 594.742 619.707 611.209 619.478C615.802 619.415 619.608 615.52 620.181 610.797C621.2 602.43 616.474 595.8 608.626 595.417C572.546 593.646 536.402 593.138 500.3 591.705C493.077 591.419 483.438 597.667 479.691 584.668C475.457 569.991 485.304 568.209 494.988 568.174C521.215 568.083 547.454 569.082 573.681 569.711C591.938 570.145 610.207 570.362 628.441 571.304C636.944 571.744 641.311 566.455 642.238 560.419C643.628 551.412 637.482 547.071 628.325 546.843C594.296 546.009 560.266 544.987 526.231 544.204C515.076 543.947 503.833 544.964 492.77 543.936C486.92 543.393 481.759 538.567 481.319 532.285C480.618 522.199 487.742 519.332 496.419 519.515C528.386 520.2 560.347 521.005 592.309 521.942C597.07 522.079 601.652 522.056 606.459 521.519C615.246 520.543 617.696 514.689 616.15 508.846C614.302 501.884 608.261 497.612 599.839 497.384C564.529 496.43 529.226 495.014 493.917 494.031C482.071 493.7 470.174 493.723 458.347 494.397C448.32 494.968 439.748 490.959 438.618 482.106C437.547 473.705 447.312 469.53 454.315 465.892C465.396 460.135 476.638 454.464 488.339 450.129C496.546 447.091 500.925 443.818 499.877 434.172C498.794 424.189 491.009 422.595 485.361 424.291C472.468 428.164 460.484 434.874 447.909 439.889C432.056 446.205 415.345 450.746 400.152 458.296C381.785 467.423 358.489 467.771 344.837 484.705C330.101 502.975 311.647 503.849 290.587 502.655C255.225 500.651 219.76 500.291 184.329 499.731C175.102 499.588 168.498 497.447 168.551 487.263C168.614 474.727 178.658 475.464 186.871 475.652C228.042 476.595 269.202 478.034 310.373 479.056C312.476 479.108 315.053 477.389 316.71 475.795C336.085 457.12 359.143 445.908 385.434 439.403C398.571 436.154 410.52 428.369 423.176 423.029C431.656 419.454 440.281 416.016 449.131 413.531C457.541 411.173 459.447 404.748 461.77 397.991C467.724 380.658 485.286 371.194 503.451 372.622C526.828 374.461 550.356 374.415 573.826 375.072C578.355 375.198 582.902 374.838 587.438 374.695C589.256 374.638 591.712 377.722 592.639 374.461C593.044 373.033 590.982 370.612 589.587 369.035C573.548 350.885 575.413 334.322 587.304 316.749C594.805 305.663 622.243 303.448 633.851 310.061C645.62 316.76 658.908 320.821 671.332 326.475C683.571 332.044 695.868 337.606 707.557 344.174C718.759 350.468 731.432 353.027 742.652 358.727C751.826 363.387 762.472 367.253 768.444 375.997C780.805 394.085 799.004 393.08 817.632 393.222C845.081 393.434 872.519 394.662 899.968 395.404C903.687 395.507 907.417 395.318 911.135 395.244C920.6 395.061 925.286 401.269 923.722 408.825C922.158 416.381 915.022 420.174 906.328 419.894C874.482 418.877 842.631 417.666 810.774 417.432C790.211 417.284 772.082 415.919 757.451 397.3C748.015 385.295 732.034 378.824 715.579 375.38C706.659 373.513 698.839 366.865 690.273 362.907C673.84 355.317 657.222 348.121 640.697 340.736C631.997 336.847 624.444 330.656 613.914 330.599C607.322 330.564 604.119 333.711 602.926 338.606C600.852 347.087 606.743 351.953 613.352 355.557C624.154 361.445 634.731 368.127 646.205 372.331C667.104 379.984 662.395 400.744 670.834 414.542C678.937 427.792 688.657 440.797 704.631 447.428C712.961 450.889 721.394 452.533 729.972 454.584C735.956 456.017 738.8 462.854 736.61 468.068C733.558 475.344 726.717 479.125 718.156 477.406C693.174 472.38 672.769 459.998 657.668 439.666C650.636 430.203 645.951 419.671 643.165 408.072C640.494 396.975 630.126 400.436 622.677 400.093C596.862 398.911 571.017 398.38 545.178 397.734C528.838 397.329 512.492 397.14 496.147 396.946C495.475 396.94 494.785 397.923 494.102 398.448C495 399.231 495.782 400.253 496.818 400.761C502.437 403.52 510.963 404.685 513.303 409.082C526.312 433.549 548.908 419.591 566.875 423.012C582.08 425.908 598.078 422.213 613.346 426.542C619.133 428.181 618.843 434.275 618.102 437.21C616.399 443.967 611.134 448.364 603.21 446.639H603.187Z" fill="#DC2626"/>
<path d="M425.777 302.242C430.063 315.652 434.257 329.097 438.688 342.461C440.084 346.664 441.358 350.845 438.879 354.849C435.317 360.605 429.577 363.404 423.176 361.559C419.324 360.451 417.639 356.585 416.399 351.747C412.831 337.789 406.303 324.562 402.857 310.587C400.656 301.654 394.377 292.979 397.378 283.515C398.698 279.352 402.77 275.091 408.887 275C421.172 274.817 420.263 285.451 423.686 292.396C425.14 295.349 425.493 298.827 426.345 302.071C426.153 302.128 425.962 302.185 425.777 302.237V302.242Z" fill="#DC2626"/>
<path d="M525.096 747.998C526.735 772.162 527.772 794.836 530.025 817.39C531.01 827.219 523.7 829.846 518.209 829.994C510.847 830.194 505.924 823.124 505.2 816.133C503.173 796.647 502.211 777.051 500.833 757.496C500.404 751.396 501.887 746.513 507.221 742.338C512.678 738.066 516.477 743.315 521.07 743.464C522.901 743.521 525.797 746.188 525.102 747.993L525.096 747.998Z" fill="#DC2626"/>
<path d="M607.201 729.517C607.583 723.994 606.32 718.517 611.313 716.672C616.92 714.605 623.616 714.079 628.47 718.74C639.904 729.717 650.915 741.128 662.14 752.322C667.55 757.719 661.485 762.236 661.086 767.182C656.452 766.783 652.959 772.442 647.393 768.77C633.318 759.489 621.849 747.49 610.155 735.679C608.099 733.606 605.944 731.613 607.207 729.511L607.201 729.517Z" fill="#DC2626"/>
<path d="M406.28 744.646C409.623 750.266 402.863 753.401 400.291 757.051C391.395 769.638 383.784 783.551 371.22 793.049C367.617 795.773 362.364 793.3 358.141 789.479C351.37 783.339 355.06 776.612 358.055 772.488C367.102 760.032 377.823 748.764 387.774 736.936C391.458 732.561 396.243 733.395 400.28 734.96C403.523 736.216 406.732 739.06 406.275 744.646H406.28Z" fill="#DC2626"/>
<path d="M291.861 360.177C303.058 366.608 315.267 372.085 325.433 380.086C330.831 384.336 341.367 382.953 341.668 394.701C341.836 401.309 337.782 402.709 335.117 406.164C331.897 410.345 326.748 408.74 324.02 407.255C309.771 399.505 295.759 391.246 282.31 382.228C279.744 380.509 278.574 374.232 279.425 370.674C280.653 365.54 285.6 362.57 291.861 360.171V360.177Z" fill="#DC2626"/>
<path d="M576.792 289.455C575.546 301.294 568.688 309.627 564.802 319.159C562.45 324.933 559.571 330.507 557.278 336.304C554.59 343.095 548.196 346.299 542.762 344.277C535.123 341.433 529.747 334.425 534.937 325.664C542.826 312.346 545.624 296.377 556.687 284.857C559.409 282.025 562.456 277.227 567.657 279.849C572.013 282.047 575.593 285.491 576.798 289.455H576.792Z" fill="#DC2626"/>
</g>
<defs>
</defs>
</svg>